0 FILE Robot_Salvaje.io
0 Untitled Model
0 Name: Robot_Salvaje
0 Author: 
0 CustomBrick
0 FlexibleBrickControlPointUnitLength -1
0 FlexibleBrickLockedControlPoint 
1 0 286.291000 -154.000000 -226.451200 1.000000 0.000000 0.000000 0.000000 0.000000 -1.000000 0.000000 1.000000 0.000000 60484.dat
1 0 286.291000 -154.000000 -146.451200 1.000000 0.000000 0.000000 0.000000 0.000000 -1.000000 0.000000 1.000000 0.000000 60484.dat
1 0 286.291100 -154.000000 -187.751200 0.000000 0.000000 -1.000000 0.000000 1.000000 0.000000 1.000000 0.000000 0.000000 60485.dat
1 0 286.291100 -134.000000 -97.891200 1.000000 0.000000 0.000000 0.000000 1.000000 0.000000 0.000000 0.000000 1.000000 32498.dat
1 0 286.291100 -154.000000 -267.751200 1.000000 0.000000 0.000000 0.000000 1.000000 0.000000 0.000000 0.000000 1.000000 32498.dat
1 0 286.291100 -154.000000 -158.691200 -1.000000 0.000000 0.000000 0.000000 1.000000 0.000000 0.000000 0.000000 -1.000000 6589.dat
1 0 366.291100 -134.000000 -125.711100 0.000000 0.000000 -1.000000 -1.000000 0.000000 0.000000 0.000000 1.000000 0.000000 32526.dat
1 0 344.010192 -134.461204 -249.314729 -0.982628 0.016980 -0.184809 -0.184781 0.003193 0.982775 0.017278 0.999851 0.000000 32271.dat
1 0 346.609400 -134.191900 -37.553580 -0.983970 0.016785 -0.177543 -0.177521 0.002793 0.984113 0.017015 0.999855 0.000232 32271.dat
1 0 344.113900 -134.617200 -186.311900 -0.983970 -0.177546 -0.016722 -0.177518 0.984113 -0.003146 0.017015 -0.000127 -0.999855 59443.dat
1 0 366.291100 -134.000000 -245.541200 0.000000 0.000000 -1.000000 -1.000000 0.000000 0.000000 0.000000 1.000000 0.000000 32526.dat
1 0 346.919500 -134.138400 -19.056200 0.983970 -0.177548 0.016722 0.177520 0.984112 0.003146 -0.017015 -0.000127 0.999855 32123a.dat
1 0 343.706292 -134.517904 -267.219829 0.982627 -0.184814 0.016979 0.184787 0.982773 0.003193 -0.017277 0.000000 0.999851 32123a.dat
1 0 345.622800 -134.356000 -96.324950 -0.016785 -0.177543 0.983970 -0.002793 0.984113 0.177521 -0.999855 0.000232 -0.017015 60485.dat
1 0 345.031792 -134.350904 -189.361329 -0.017045 -0.184788 0.982631 -0.002841 0.982778 0.184766 -0.999851 0.000358 -0.017276 60485.dat
1 0 289.842400 1.883310 -19.699600 0.897287 0.441106 0.016943 -0.441212 0.897394 0.003115 -0.013831 -0.010270 0.999851 32123a.dat
1 0 288.545500 1.665030 -96.967040 -0.016785 0.441112 0.897294 -0.002793 0.897397 -0.441215 -0.999854 -0.009912 -0.013831 60485.dat
1 0 285.658892 1.122456 -267.959629 0.900532 0.434448 0.016978 -0.434558 0.900638 0.003193 -0.013904 -0.010253 0.999852 32123a.dat
1 0 286.935392 1.303576 -190.100329 -0.016822 0.434474 0.900527 -0.002870 0.900630 -0.434577 -0.999854 -0.009895 -0.013903 60485.dat
1 0 287.029700 1.403150 -186.953800 -0.897293 0.441110 -0.016981 0.441220 0.897394 -0.003191 0.013831 -0.010356 -0.999851 59443.dat
1 0 343.944292 -134.635304 -196.310429 -0.983970 -0.177543 -0.016785 -0.177521 0.984113 -0.002793 0.017015 0.000232 -0.999855 32270.dat
1 0 345.488500 -134.378300 -104.323800 -0.983970 -0.177542 -0.016786 -0.177521 0.984113 -0.002793 0.017015 0.000232 -0.999855 32270.dat
1 0 246.291000 -214.000000 -186.451200 0.000000 1.000000 0.000000 0.000000 0.000000 1.000000 1.000000 0.000000 0.000000 64179.dat
1 0 286.291000 -184.000000 -186.451200 0.000000 -1.000000 0.000000 0.000000 0.000000 -1.000000 1.000000 0.000000 0.000000 99455.dat
1 0 246.291000 -254.000000 -226.451200 0.000000 -0.707107 -0.707107 0.000000 0.707107 -0.707107 1.000000 0.000000 0.000000 32054.dat
1 0 308.850392 -236.371743 -185.620954 -0.000001 -0.137617 -0.990490 0.000000 0.990486 -0.137622 1.000001 0.000000 -0.000001 95654.dat
1 0 286.166700 -154.012800 -186.451200 -0.000001 -0.149416 -0.988777 0.000000 0.988775 -0.149415 1.000001 0.000000 -0.000001 95648.dat
1 0 286.291000 -182.530000 -186.451200 0.000000 1.000000 0.000000 -1.000000 0.000000 0.000000 0.000000 0.000000 1.000000 32062.dat
1 0 286.291000 -172.530000 -186.451200 0.000000 -1.000000 0.000000 0.000000 0.000000 -1.000000 1.000000 0.000000 0.000000 32269.dat
1 0 306.291000 -194.000000 -156.451200 0.000000 0.000000 -1.000000 0.000000 -1.000000 0.000000 -1.000000 0.000000 0.000000 2780.dat
1 0 266.291000 -194.000000 -156.451200 0.000000 0.000000 -1.000000 0.000000 -1.000000 0.000000 -1.000000 0.000000 0.000000 2780.dat
1 0 306.291000 -194.000000 -216.451200 0.000000 0.000000 -1.000000 0.000000 -1.000000 0.000000 -1.000000 0.000000 0.000000 2780.dat
1 0 266.291000 -194.000000 -216.451200 0.000000 0.000000 -1.000000 0.000000 -1.000000 0.000000 -1.000000 0.000000 0.000000 2780.dat
1 0 176.291100 -74.000220 -326.451400 -1.000000 0.000000 0.000000 0.000000 -1.000000 0.000000 0.000000 0.000000 1.000000 2780.dat
1 0 176.291100 -74.000200 -286.451400 -1.000000 0.000000 0.000000 0.000000 -1.000000 0.000000 0.000000 0.000000 1.000000 2780.dat
1 0 176.291000 -73.999960 -86.451190 -1.000000 0.000000 0.000000 0.000000 -1.000000 0.000000 0.000000 0.000000 1.000000 2780.dat
1 0 176.291000 -73.999960 -46.451280 -1.000000 0.000000 0.000000 0.000000 -1.000000 0.000000 0.000000 0.000000 1.000000 2780.dat
1 0 186.291000 -73.999960 -186.451200 0.000000 1.000000 0.000000 -1.000000 0.000000 0.000000 0.000000 0.000000 1.000000 32278.dat
1 0 206.290200 -74.000060 -146.451600 -1.000000 0.000000 0.000000 0.000000 0.000000 -1.000000 0.000000 -1.000000 0.000000 6558.dat
1 0 206.291000 -73.999960 -226.451200 -1.000000 0.000000 0.000000 0.000000 0.000000 -1.000000 0.000000 -1.000000 0.000000 6558.dat
1 0 226.291000 -153.999900 -226.451200 0.000000 1.000000 0.000000 0.000000 0.000000 -1.000000 -1.000000 0.000000 0.000000 41239.dat
1 0 226.291100 -154.000200 -146.451400 0.000000 1.000000 0.000000 0.000000 0.000000 -1.000000 -1.000000 0.000000 0.000000 41239.dat
1 0 186.291000 -153.999800 -66.451190 1.000000 0.000000 0.000000 0.000000 -1.000000 0.000000 0.000000 0.000000 -1.000000 6558.dat
1 0 186.291000 -154.000200 -306.451400 1.000000 0.000000 0.000000 0.000000 -1.000000 0.000000 0.000000 0.000000 -1.000000 6558.dat
1 0 206.291100 -154.000200 -186.451400 0.000000 -1.000000 0.000000 -1.000000 0.000000 0.000000 0.000000 0.000000 -1.000000 41239.dat
1 0 186.291000 -174.000200 -306.451400 0.000000 0.000000 -1.000000 0.000000 1.000000 0.000000 1.000000 0.000000 0.000000 42003.dat
1 0 186.291000 -173.999800 -66.451190 0.000000 0.000000 -1.000000 0.000000 1.000000 0.000000 1.000000 0.000000 0.000000 42003.dat
1 0 226.291000 -153.999900 -226.451200 -1.000000 0.000000 0.000000 0.000000 0.000000 -1.000000 0.000000 -1.000000 0.000000 6558.dat
1 0 226.291100 -154.000200 -146.451400 -1.000000 0.000000 0.000000 0.000000 0.000000 -1.000000 0.000000 -1.000000 0.000000 6558.dat
1 0 186.291000 -194.000000 -106.451200 0.000000 0.000000 1.000000 -1.000000 0.000000 0.000000 0.000000 -1.000000 0.000000 32140.dat
1 0 186.290700 -194.000100 -266.450300 0.000000 0.000000 1.000000 -1.000004 0.000000 0.000000 0.000000 -1.000004 0.000000 32140.dat
1 0 216.293400 -34.000200 -206.450800 -1.000009 0.000000 0.000000 0.000000 -1.000000 0.000000 0.000000 0.000000 1.000009 2780.dat
1 0 216.291100 -34.000200 -146.451400 -1.000000 0.000000 0.000000 0.000000 -1.000000 0.000000 0.000000 0.000000 1.000000 2780.dat
1 0 226.293400 5.999800 -186.450800 0.000000 0.000000 -1.000009 0.000000 1.000000 0.000000 1.000009 0.000000 0.000000 99948.dat
1 0 186.290700 -194.000100 -288.170300 0.000000 0.000000 -1.000000 0.000000 1.000000 0.000000 1.000000 0.000000 0.000000 4519.dat
1 0 246.291000 -214.000000 -226.451200 0.000000 0.000000 -1.000000 0.000000 1.000000 0.000000 1.000000 0.000000 0.000000 32054.dat
1 0 246.291000 -214.000000 -116.451200 0.000000 0.000000 1.000000 0.000000 1.000000 0.000000 -1.000000 0.000000 0.000000 43093.dat
1 0 246.291000 -254.000000 -146.451200 0.000000 -0.707107 0.707107 0.000000 0.707107 0.707107 -1.000000 0.000000 0.000000 32054.dat
1 0 246.291000 -214.000000 -146.451200 0.000000 0.000000 1.000000 0.000000 1.000000 0.000000 -1.000000 0.000000 0.000000 32054.dat
1 0 246.291000 -214.000000 -256.451100 0.000000 0.000000 -1.000000 0.000000 1.000000 0.000000 1.000000 0.000000 0.000000 43093.dat
1 0 236.291000 -274.000000 -146.451200 -1.000000 0.000000 0.000000 0.000000 -0.798630 0.601823 0.000000 0.601823 0.798630 2780.dat
1 0 236.291000 -274.000000 -226.451200 -1.000000 0.000000 0.000000 0.000000 -0.798630 0.601823 0.000000 0.601823 0.798630 2780.dat
1 0 216.293400 -34.000200 -166.450300 -1.000009 0.000000 0.000000 0.000000 -1.000000 0.000000 0.000000 0.000000 1.000009 2780.dat
1 0 216.293400 -34.000190 -226.450900 -1.000009 0.000000 0.000000 0.000000 -1.000000 0.000000 0.000000 0.000000 1.000009 2780.dat
1 0 -33.708800 -54.000000 -306.451400 0.000000 0.000001 -1.000000 0.000000 1.000000 0.000001 1.000000 0.000000 0.000000 95658.dat
1 0 -33.708960 -53.999790 -66.451340 0.000000 0.000001 -1.000000 0.000000 0.999998 0.000001 0.999998 0.000000 0.000000 95658.dat
1 0 46.291020 -114.027600 -86.451320 -0.000697 0.000000 -1.000000 -1.000000 0.000000 0.000697 0.000000 1.000000 0.000000 32348.dat
1 0 46.291110 -114.027900 -286.451400 -0.000697 -0.000001 -1.000000 -1.000000 0.000000 0.000697 0.000000 1.000000 -0.000001 32348.dat
1 0 14.307740 -209.893900 -186.451400 0.000000 0.599163 -0.800627 0.000000 0.800627 0.599163 1.000000 0.000000 0.000000 95646.dat
1 0 186.187000 -193.948000 -86.451190 0.000000 0.000000 -1.000000 -1.000000 0.000000 0.000000 0.000000 1.000000 0.000000 32348.dat
1 0 186.290700 -194.000100 -286.450300 0.000000 0.000000 -1.000000 -1.000000 0.000000 0.000000 0.000000 1.000000 0.000000 32348.dat
1 0 6.291150 -114.000000 -296.451400 0.000000 0.000000 -1.000000 0.000000 -1.000000 0.000000 -1.000000 0.000000 0.000000 2780.dat
1 0 6.290980 -113.999700 -76.451340 0.000000 0.000000 -1.000000 0.000000 -1.000000 0.000000 -1.000000 0.000000 0.000000 2780.dat
1 0 46.291110 -114.000100 -296.451400 0.000000 0.051659 0.998665 0.000000 -0.998665 0.051659 1.000000 0.000000 0.000000 43093.dat
1 0 46.284900 -113.999800 -75.771300 0.000000 0.051660 -0.998665 0.000000 -0.998665 -0.051660 -1.000000 0.000000 0.000000 43093.dat
1 0 -37.731130 -145.969300 -276.451500 0.000000 0.000000 -1.000000 0.000000 -1.000000 0.000000 -1.000000 0.000000 0.000000 2780.dat
1 0 -25.720190 -129.977400 -96.451340 0.000000 0.000000 -1.000000 0.000000 -1.000000 0.000000 -1.000000 0.000000 0.000000 2780.dat
1 0 -49.742470 -161.960700 -96.451340 0.000000 -0.600558 0.799581 0.000000 -0.799581 -0.600558 1.000000 0.000000 0.000000 43093.dat
1 0 -49.742280 -161.961000 -276.451500 0.000000 -0.799582 0.600558 0.000000 0.600557 0.799582 -1.000000 0.000000 0.000000 43093.dat
1 0 90.291000 -242.000000 -96.271300 0.000000 -0.600000 0.800000 0.000000 -0.800000 -0.600000 1.000000 0.000000 0.000000 43093.dat
1 0 90.290740 -242.000100 -276.450300 0.000000 -0.600000 0.800000 0.000000 0.800000 0.600000 -1.000000 0.000000 0.000000 43093.dat
1 0 102.187000 -225.948000 -96.451190 0.000000 -0.601823 -0.798630 0.000000 -0.798630 0.601823 -1.000000 0.000000 0.000000 2780.dat
1 0 102.290700 -226.000100 -276.450300 0.000000 0.000000 -1.000000 0.000000 -1.000000 0.000000 -1.000000 0.000000 0.000000 2780.dat
1 0 -133.708700 -34.000140 -386.451100 0.000000 0.000000 1.000000 -1.000000 0.000000 0.000000 0.000000 -1.000000 0.000000 6558.dat
1 0 -133.708700 -34.000140 -406.451100 0.000000 0.000000 1.000000 -1.000000 0.000000 0.000000 0.000000 -1.000000 0.000000 6558.dat
1 0 -133.708700 -34.000140 -346.451300 0.000000 0.000000 1.000005 -1.000000 0.000000 0.000000 0.000000 -1.000005 0.000000 6558.dat
1 0 -133.708700 -34.000130 -186.450600 1.000004 0.000000 0.000000 0.000000 1.000000 0.000000 0.000000 0.000000 1.000004 32278.dat
1 0 -133.708700 -34.000140 -226.450900 0.000000 0.000000 1.000004 -1.000000 0.000000 0.000000 0.000000 -1.000004 0.000000 6558.dat
1 0 -133.708900 -34.000090 -146.451400 0.000000 0.000000 1.000006 -1.000000 0.000000 0.000000 0.000000 -1.000005 0.000000 6558.dat
1 0 -133.709000 -34.000090 -26.450980 0.000000 0.000000 1.000004 -1.000000 0.000000 0.000000 0.000000 -1.000004 0.000000 6558.dat
1 0 -133.708900 -14.000080 -186.451300 1.000004 0.000000 0.000000 0.000000 1.000000 0.000000 0.000000 0.000000 1.000004 32316.dat
1 0 -133.709000 -14.000060 -46.451980 1.000000 0.000000 0.000000 0.000000 1.000000 0.000000 0.000000 0.000000 1.000000 40490.dat
1 0 -133.709000 -33.999960 33.548020 0.000000 0.000000 1.000000 0.999997 0.000000 0.000000 0.000000 0.999996 0.000000 6558.dat
1 0 -133.709000 -34.000080 13.549330 0.000000 0.000000 1.000000 1.000002 0.000000 0.000000 0.000000 1.000002 0.000000 6558.dat
1 0 -133.709000 -54.000080 -66.450930 1.000004 0.000000 0.000000 0.000000 1.000000 0.000000 0.000000 0.000000 1.000004 32525.dat
1 0 -133.708700 -54.000140 -306.451200 1.000000 0.000000 0.000000 0.000000 1.000000 0.000000 0.000000 0.000000 1.000000 32525.dat
1 0 -133.708700 -14.000130 -326.451300 1.000000 0.000000 0.000000 0.000000 1.000000 0.000000 0.000000 0.000000 1.000000 40490.dat
1 0 -33.709210 -53.999790 3.588390 -0.999997 0.000000 0.000000 0.000000 -0.999998 0.000000 0.000000 0.000000 0.999995 41897.dat
1 0 -133.709000 -34.000000 73.548520 0.000000 0.000000 -1.000000 0.000000 -0.999998 0.000000 -0.999998 0.000000 0.000000 32009.dat
1 0 186.291000 -14.000040 -6.451400 1.000000 0.000000 0.000000 0.000000 0.999998 0.000000 0.000000 0.000000 0.999998 32526.dat
1 0 186.291100 -34.000000 73.548580 0.000000 0.000000 1.000000 -0.999999 0.000000 0.000000 0.000000 -0.999998 0.000000 6558.dat
1 0 226.290900 -34.000000 73.548580 0.000000 0.000000 1.000000 -0.999999 0.000000 0.000000 0.000000 -0.999998 0.000000 6558.dat
1 0 186.291100 -33.999990 73.548580 0.000000 0.000000 -1.000000 0.000000 0.999999 0.000000 0.999998 0.000000 0.000000 32278.dat
1 0 166.291100 -33.999990 73.548580 0.000000 0.000000 1.000000 -0.999999 0.000000 0.000000 0.000000 -0.999998 0.000000 6558.dat
1 0 326.290900 -33.999990 73.548580 0.000000 0.000000 1.000000 -0.999999 0.000000 0.000000 0.000000 -0.999998 0.000000 6558.dat
1 0 266.290900 -34.000000 73.548580 0.000000 0.000000 1.000000 -0.999999 0.000000 0.000000 0.000000 -0.999998 0.000000 6558.dat
1 0 266.291000 -14.000030 73.548580 0.000000 0.000000 1.000000 0.000000 0.999998 0.000000 -0.999998 0.000000 0.000000 32526.dat
1 0 46.291180 -14.000020 73.548520 0.000000 0.000000 -1.000000 0.000000 0.999998 0.000000 0.999998 0.000000 0.000000 41239.dat
1 0 46.290970 -24.000000 73.548520 0.000000 0.000000 -1.000000 0.999999 0.000000 0.000000 0.000000 -0.999998 0.000000 2780.dat
1 0 -13.708840 -44.000020 73.548520 0.000000 0.000000 -1.000000 -1.000000 0.000000 0.000000 0.000000 1.000000 0.000000 43093.dat
1 0 6.291090 -34.000000 73.548520 0.000000 0.000000 1.000000 0.999998 0.000000 0.000000 0.000000 0.999998 0.000000 6558.dat
1 0 186.291000 -34.000000 -6.451400 1.000000 0.000000 0.000000 0.000000 0.999998 0.000000 0.000000 0.000000 0.999998 55615.dat
1 0 346.290800 -33.999960 73.548340 0.000000 0.000000 1.000000 -0.999999 0.000000 0.000000 0.000000 -0.999998 0.000000 6558.dat
1 0 346.291000 -33.999980 33.548510 0.000000 0.000000 1.000000 -0.999999 0.000000 0.000000 0.000000 -0.999998 0.000000 6558.dat
1 0 346.291000 -33.999960 53.548600 1.000000 0.000000 0.000000 0.000000 0.999999 0.000000 0.000000 0.000000 0.999998 32523.dat
1 0 266.290800 -53.999940 73.548340 0.000000 0.000000 1.000000 0.000000 0.999998 0.000000 -0.999998 0.000000 0.000000 32526.dat
1 0 -33.708840 -54.000000 73.548520 0.000000 -1.000000 0.000000 1.000002 0.000000 0.000000 0.000000 0.000000 1.000002 32184.dat
1 0 126.291100 -53.999960 73.548520 0.000000 0.000000 -1.000000 0.000000 1.000000 0.000000 1.000000 0.000000 0.000000 41239.dat
1 0 106.291000 -53.999960 -26.451340 0.000000 0.000000 1.000000 0.999999 0.000000 0.000000 0.000000 0.999998 0.000000 32526.dat
1 0 186.291000 -53.999960 -16.451280 0.000000 0.000000 -1.000000 0.000000 -1.000000 0.000000 -1.000000 0.000000 0.000000 2780.dat
1 0 126.291000 -53.999960 -36.451340 0.000000 0.000000 -1.000000 0.000000 -0.999998 0.000000 -0.999998 0.000000 0.000000 43093.dat
1 0 106.291000 -53.999960 -36.451340 0.000000 0.000000 -1.000000 0.000000 -0.999998 0.000000 -0.999998 0.000000 0.000000 2780.dat
1 0 146.291000 -53.999960 -36.451280 0.000000 0.000000 -1.000000 0.000000 -0.999998 0.000000 -0.999998 0.000000 0.000000 2780.dat
1 0 -53.708780 -44.000020 73.548400 0.000000 0.000000 -1.000000 -1.000000 0.000000 0.000000 0.000000 1.000000 0.000000 43093.dat
1 0 -33.708780 -54.000480 3.588150 -0.999997 0.000000 0.000000 0.000000 0.999998 0.000000 0.000000 0.000000 -0.999995 56908.dat
1 0 -33.708840 -54.000000 63.548520 0.000000 0.000000 1.000000 0.000000 1.000000 0.000000 -1.000000 0.000000 0.000000 43093.dat
1 0 -33.708840 -53.999800 -26.451640 0.000000 0.000000 0.999997 -0.999998 0.000000 0.000000 0.000000 -0.999995 0.000000 32523.dat
1 0 -33.708780 -53.999800 -26.411610 0.000000 0.000000 0.999997 0.000000 0.999998 0.000000 -0.999995 0.000000 0.000000 44294.dat
1 0 -33.708780 -54.002860 43.548520 1.000000 0.000000 0.000000 0.000000 1.000000 0.000000 0.000000 0.000000 1.000000 59443.dat
1 0 -13.709020 -53.999780 -36.451520 0.000000 0.000000 0.999997 0.000000 0.999998 0.000000 -0.999995 0.000000 0.000000 2780.dat
1 0 -53.708780 -53.999840 -36.451520 0.000000 0.000000 0.999997 0.000000 0.999998 0.000000 -0.999995 0.000000 0.000000 2780.dat
1 0 -33.708820 -54.000000 -373.161400 1.000000 0.000000 0.000000 0.000000 1.000000 0.000000 0.000000 0.000000 1.000000 41897.dat
1 0 -33.708800 -54.000020 -346.491400 0.000000 0.000000 -1.000000 0.000000 1.000000 0.000000 1.000000 0.000000 0.000000 44294.dat
1 0 186.291200 -34.000140 -366.451400 -1.000000 0.000000 0.000000 0.000000 1.000000 0.000000 0.000000 0.000000 -1.000000 55615.dat
1 0 186.291200 -14.000140 -366.451400 1.000000 0.000000 0.000000 0.000000 -1.000000 0.000000 0.000000 0.000000 -1.000000 32526.dat
1 0 186.291200 -34.000140 -446.451300 0.000000 0.000000 1.000000 -1.000000 0.000000 0.000000 0.000000 -1.000000 0.000000 6558.dat
1 0 226.291200 -34.000140 -446.451300 0.000000 0.000000 1.000000 -1.000000 0.000000 0.000000 0.000000 -1.000000 0.000000 6558.dat
1 0 186.291200 -34.000130 -446.451300 0.000000 0.000000 -1.000000 0.000000 1.000000 0.000000 1.000000 0.000000 0.000000 32278.dat
1 0 166.291300 -34.000130 -446.451300 0.000000 0.000000 1.000000 -1.000000 0.000000 0.000000 0.000000 -1.000000 0.000000 6558.dat
1 0 326.291200 -34.000130 -446.451300 0.000000 0.000000 1.000000 -1.000000 0.000000 0.000000 0.000000 -1.000000 0.000000 6558.dat
1 0 266.291200 -34.000140 -446.451300 0.000000 0.000000 1.000000 -1.000000 0.000000 0.000000 0.000000 -1.000000 0.000000 6558.dat
1 0 266.291200 -14.000130 -446.451300 0.000000 0.000000 1.000000 0.000000 -1.000000 0.000000 1.000000 0.000000 0.000000 32526.dat
1 0 46.291280 -14.000130 -446.451400 0.000000 0.000000 -1.000000 0.000000 1.000000 0.000000 1.000000 0.000000 0.000000 41239.dat
1 0 46.291280 -24.000130 -446.451400 0.000000 0.000000 -1.000000 1.000000 0.000000 0.000000 0.000000 -1.000000 0.000000 2780.dat
1 0 346.291100 -34.000130 -406.451300 0.000000 0.000000 1.000000 -1.000000 0.000000 0.000000 0.000000 -1.000000 0.000000 6558.dat
1 0 346.291100 -34.000140 -446.451300 0.000000 0.000000 1.000000 -1.000000 0.000000 0.000000 0.000000 -1.000000 0.000000 6558.dat
1 0 346.291100 -34.000120 -426.451300 1.000000 0.000000 0.000000 0.000000 1.000000 0.000000 0.000000 0.000000 1.000000 32523.dat
1 0 -133.708700 -34.000150 -446.451400 0.000000 0.000000 -1.000000 0.000000 1.000000 0.000000 1.000000 0.000000 0.000000 32009.dat
1 0 6.291310 -34.000150 -446.451400 0.000000 0.000000 1.000000 -1.000000 0.000000 0.000000 0.000000 -1.000000 0.000000 6558.dat
1 0 -13.708690 -44.000140 -446.451400 0.000000 0.000000 -1.000000 -1.000000 0.000000 0.000000 0.000000 1.000000 0.000000 43093.dat
1 0 -53.708690 -44.000120 -446.451400 0.000000 0.000000 -1.000000 -1.000000 0.000000 0.000000 0.000000 1.000000 0.000000 43093.dat
1 0 266.291100 -54.000140 -446.451300 0.000000 0.000000 1.000000 0.000000 -1.000000 0.000000 1.000000 0.000000 0.000000 32526.dat
1 0 -33.708690 -54.000140 -446.451400 0.000000 -1.000000 0.000000 1.000000 0.000000 0.000000 0.000000 0.000000 1.000000 32184.dat
1 0 -33.708750 -54.002860 -416.491400 1.000000 0.000000 0.000000 0.000000 1.000000 0.000000 0.000000 0.000000 1.000000 59443.dat
1 0 -33.708750 -54.000000 -436.491400 0.000000 0.000000 -1.000000 0.000000 1.000000 0.000000 1.000000 0.000000 0.000000 43093.dat
1 0 -73.708690 -24.000150 -446.451400 0.000000 0.000000 -1.000000 1.000000 0.000000 0.000000 0.000000 -1.000000 0.000000 2780.dat
1 0 126.291300 -54.000160 -446.451300 0.000000 0.000000 -1.000000 0.000000 1.000000 0.000000 1.000000 0.000000 0.000000 41239.dat
1 0 -33.708820 -54.000700 -373.161400 1.000000 0.000000 0.000000 0.000000 1.000000 0.000000 0.000000 0.000000 1.000000 56908.dat
1 0 -53.708800 -54.000000 -336.451400 0.000000 0.000000 -1.000000 0.000000 1.000000 0.000000 1.000000 0.000000 0.000000 2780.dat
1 0 -33.708800 -54.000000 -346.451400 0.000000 0.000000 -1.000000 -1.000000 0.000000 0.000000 0.000000 1.000000 0.000000 32523.dat
1 0 -13.708760 -54.000020 -336.451400 0.000000 0.000000 -1.000000 0.000000 1.000000 0.000000 1.000000 0.000000 0.000000 2780.dat
1 0 106.291200 -54.000160 -346.451400 0.000000 0.000000 1.000000 1.000000 0.000000 0.000000 0.000000 1.000000 0.000000 32526.dat
1 0 126.291200 -54.000160 -336.451400 0.000000 0.000000 -1.000000 0.000000 1.000000 0.000000 1.000000 0.000000 0.000000 43093.dat
1 0 106.291200 -54.000140 -336.451400 0.000000 0.000000 -1.000000 0.000000 -1.000000 0.000000 -1.000000 0.000000 0.000000 2780.dat
1 0 146.291200 -54.000180 -336.451400 0.000000 0.000000 -1.000000 0.000000 -1.000000 0.000000 -1.000000 0.000000 0.000000 2780.dat
1 0 226.293400 5.999800 -186.450800 0.000000 -1.000009 0.000000 0.000000 0.000000 -1.000000 1.000009 0.000000 0.000000 92911.dat
1 0 206.293400 -34.000200 -186.450800 0.000000 1.000009 0.000000 -1.000000 0.000000 0.000000 0.000000 0.000000 1.000009 32316.dat
1 0 146.291000 -73.999960 -86.451190 1.000000 0.000000 0.000000 0.000000 0.000000 -1.000000 0.000000 1.000000 0.000000 32014.dat
1 0 146.291000 -73.999960 -156.451200 0.000000 0.000000 -1.000000 0.000000 1.000000 0.000000 1.000000 0.000000 0.000000 3705.dat
1 0 146.291000 -73.999910 -206.991200 -1.000000 0.000000 0.000000 0.000000 0.000000 -1.000000 0.000000 -1.000000 0.000000 32014.dat
1 19 146.291000 -43.999980 -86.451190 0.000000 0.000000 1.000000 -1.000000 0.000000 0.000000 0.000000 -1.000000 0.000000 3749.dat
1 19 146.290800 -44.000180 -207.070000 0.000000 0.000000 1.000000 -1.000000 0.000000 0.000000 0.000000 -1.000000 0.000000 3749.dat
1 0 46.284900 -113.999800 -65.771300 1.000001 0.000000 0.000000 0.000000 0.000000 -1.000001 0.000000 1.000000 0.000000 32014.dat
1 0 46.284900 -113.999800 -135.771300 0.000000 0.000000 -1.000001 0.000000 1.000001 0.000000 1.000000 0.000000 0.000000 3705.dat
1 0 46.284900 -113.999800 -186.311400 -1.000001 0.000000 0.000000 0.000000 0.000000 -1.000001 0.000000 -1.000000 0.000000 32014.dat
1 71 224.007492 -151.594543 -193.621354 0.000000 -0.707107 0.707107 0.000000 0.707107 0.707107 -1.000000 0.000000 0.000000 32073.dat
1 0 224.007492 -151.594543 -165.621354 0.707107 -0.000002 0.707107 0.707107 0.000000 -0.707107 0.000002 1.000000 0.000001 32271.dat
1 1 328.660092 -233.619243 -185.620954 0.000002 -0.149415 0.988780 0.000000 0.988775 0.149422 -1.000000 0.000000 0.000002 6558.dat
1 0 223.864592 -151.573643 -206.451254 0.707114 -0.000002 0.707107 0.707109 0.000000 -0.707106 0.000002 1.000000 0.000001 32271.dat
1 0 266.434692 -194.021543 -185.620954 -0.707113 -0.000002 -0.707109 -0.707111 0.000000 0.707105 -0.000002 1.000000 -0.000001 32140.dat
1 71 266.434692 -194.021543 -188.440854 -0.000002 -0.707109 -0.707113 0.000000 0.707105 -0.707111 1.000000 -0.000001 -0.000002 4519.dat
1 71 308.763992 -236.746143 -184.931054 -0.000002 -0.149410 -0.988781 0.000000 0.988776 -0.149419 1.000000 0.000000 -0.000002 4519.dat
1 0 201.291000 -69.000000 -166.450600 0.707107 -0.000002 0.707107 0.707107 0.000000 -0.707107 0.000002 1.000000 0.000002 32271.dat
1 1 305.942300 -151.024500 -186.451100 0.000002 -0.149416 0.988778 0.000000 0.988775 0.149418 -1.000000 0.000000 0.000002 6558.dat
1 0 201.290300 -69.000000 -206.451400 0.707111 -0.000003 0.707108 0.707105 0.000000 -0.707110 0.000002 1.000001 0.000002 32271.dat
1 0 243.716700 -111.426600 -186.451200 -0.707110 -0.000002 -0.707108 -0.707107 0.000000 0.707107 -0.000002 1.000000 -0.000002 32140.dat
1 71 243.716700 -111.426500 -185.270900 -0.000002 -0.707108 -0.707110 0.000000 0.707107 -0.707107 1.000000 -0.000002 -0.000002 4519.dat
1 1 229.574500 -97.284500 -186.451200 -0.000002 -0.707108 -0.707110 0.000000 0.707107 -0.707107 1.000000 -0.000002 -0.000002 6558.dat
1 71 286.046100 -154.151300 -185.761200 -0.000002 -0.149411 -0.988778 0.000000 0.988776 -0.149415 1.000000 0.000000 -0.000002 4519.dat
1 71 201.291000 -69.000000 -183.830600 0.000000 -0.707107 0.707107 0.000000 0.707107 0.707107 -1.000000 0.000000 0.000000 32073.dat
0 NOFILE
