0 FILE Robot_1.ldr.io
0 Untitled Model
0 Name: Robot_1.ldr
0 Author: 
0 CustomBrick
0 FlexibleBrickControlPointUnitLength -1
0 FlexibleBrickLockedControlPoint 
1 0 267.403500 -154.000000 -242.360300 1.000000 0.000000 0.000000 0.000000 0.000000 -1.000000 0.000000 1.000000 0.000000 60484.dat
1 0 267.403500 -154.000000 -162.360300 1.000000 0.000000 0.000000 0.000000 0.000000 -1.000000 0.000000 1.000000 0.000000 60484.dat
1 0 267.403600 -154.000000 -203.660300 0.000000 0.000000 -1.000000 0.000000 1.000000 0.000000 1.000000 0.000000 0.000000 60485.dat
1 0 267.403600 -154.000000 -122.160300 1.000000 0.000000 0.000000 0.000000 1.000000 0.000000 0.000000 0.000000 1.000000 32498.dat
1 0 267.403600 -154.000000 -283.660300 1.000000 0.000000 0.000000 0.000000 1.000000 0.000000 0.000000 0.000000 1.000000 32498.dat
1 0 267.403600 -154.000000 -174.600300 -1.000000 0.000000 0.000000 0.000000 1.000000 0.000000 0.000000 0.000000 -1.000000 6589.dat
1 0 347.403600 -134.000000 -141.620300 0.000000 0.000000 -1.000000 -1.000000 0.000000 0.000000 0.000000 1.000000 0.000000 32526.dat
1 0 289.314700 -134.752800 -29.562380 0.990949 -0.017001 0.133161 -0.133126 0.003182 0.991095 -0.017273 -0.999850 0.000890 32271.dat
1 0 285.280500 -134.191900 -327.731100 0.991909 -0.016785 0.125835 -0.125806 0.002793 0.992051 -0.017004 -0.999855 0.000658 32271.dat
1 0 286.762500 -134.384500 -179.502400 0.990948 0.133167 0.017000 -0.133132 0.991093 -0.003182 -0.017271 0.000890 0.999850 59443.dat
1 0 347.403600 -134.000000 -261.450300 0.000000 0.000000 -1.000000 -1.000000 0.000000 0.000000 0.000000 1.000000 0.000000 32526.dat
1 0 284.970200 -134.138400 -346.228500 -0.991909 0.125840 -0.016740 0.125805 0.992050 0.003149 0.017004 0.001017 -0.999855 32123a.dat
1 0 289.618900 -134.809400 -11.657290 -0.990948 0.133166 -0.017000 0.133132 0.991093 0.003182 0.017272 0.000890 -0.999850 32123a.dat
1 0 286.267100 -134.356000 -268.959800 0.016785 0.125835 -0.991909 -0.002793 0.992051 0.125806 0.999855 0.000658 0.017004 60485.dat
1 0 288.296100 -134.643200 -89.515910 0.017047 0.133140 -0.990951 -0.002827 0.991097 0.133111 0.999851 0.000532 0.017271 60485.dat
1 0 334.855900 4.681480 -345.456500 -0.872987 -0.487433 -0.016960 -0.487545 0.873089 0.003106 0.013294 0.010980 -0.999850 32123a.dat
1 0 336.152800 4.463170 -268.189100 0.016785 -0.487440 -0.872994 -0.002793 0.873092 -0.487548 0.999854 0.010622 0.013294 60485.dat
1 0 340.504300 3.644010 -12.249780 0.480980 0.876570 0.016826 -0.876667 0.481088 -0.002868 -0.010609 -0.013371 0.999854 32123a.dat
1 0 339.218700 3.863170 -88.648570 0.016826 -0.480980 -0.876570 -0.002868 0.876668 -0.481088 0.999854 0.010609 0.013371 60485.dat
1 0 337.708600 4.121720 -178.345400 0.876570 -0.480974 0.016999 0.481088 0.876667 -0.003182 -0.013371 0.010967 0.999850 59443.dat
1 0 289.396100 -134.876500 -82.566800 0.983970 0.177543 0.016785 -0.177521 0.984113 -0.002793 -0.017015 -0.000232 0.999855 32270.dat
1 0 286.401400 -134.378300 -260.961000 0.991909 0.125834 0.016786 -0.125806 0.992051 -0.002793 -0.017004 0.000658 0.999855 32270.dat
0 STEP
1 0 227.403500 -214.000000 -202.360300 0.000000 1.000000 0.000000 0.000000 0.000000 1.000000 1.000000 0.000000 0.000000 64179.dat
1 0 267.403500 -184.000000 -202.360300 0.000000 -1.000000 0.000000 0.000000 0.000000 -1.000000 1.000000 0.000000 0.000000 99455.dat
1 0 267.403500 -182.530000 -202.360300 0.000000 1.000000 0.000000 -1.000000 0.000000 0.000000 0.000000 0.000000 1.000000 32062.dat
1 0 267.403500 -172.530000 -202.360300 0.000000 -1.000000 0.000000 0.000000 0.000000 -1.000000 1.000000 0.000000 0.000000 32269.dat
1 0 287.403500 -194.000000 -172.360300 0.000000 0.000000 -1.000000 0.000000 -1.000000 0.000000 -1.000000 0.000000 0.000000 2780.dat
1 0 247.403500 -194.000000 -172.360300 0.000000 0.000000 -1.000000 0.000000 -1.000000 0.000000 -1.000000 0.000000 0.000000 2780.dat
1 0 287.403500 -194.000000 -232.360300 0.000000 0.000000 -1.000000 0.000000 -1.000000 0.000000 -1.000000 0.000000 0.000000 2780.dat
1 0 247.403500 -194.000000 -232.360300 0.000000 0.000000 -1.000000 0.000000 -1.000000 0.000000 -1.000000 0.000000 0.000000 2780.dat
1 0 187.403500 -294.000000 -202.360400 -1.000000 0.000000 0.000000 0.000000 -1.000000 0.000000 0.000000 0.000000 1.000000 64179.dat
1 0 187.403400 -334.000100 -202.360800 -1.000000 0.000000 0.000000 0.000000 -1.000000 0.000000 0.000000 0.000000 1.000000 64179.dat
1 0 187.403500 -314.000100 -202.360400 -1.000000 0.000000 0.000000 0.000000 -1.000000 0.000000 0.000000 0.000000 1.000000 64179.dat
1 0 187.403500 -354.000100 -202.360400 -1.000000 0.000000 0.000000 0.000000 -1.000000 0.000000 0.000000 0.000000 1.000000 64179.dat
1 0 187.403600 -374.000000 -202.360400 -1.000000 0.000000 0.000000 0.000000 -1.000000 0.000000 0.000000 0.000000 1.000000 64179.dat
1 16 199.744700 -256.282300 -286.086100 1.000000 0.000000 0.000000 0.000000 1.000000 0.000000 0.000000 0.000000 1.000000 submodel group 1
0 STEP
1 0 157.403700 -74.000220 -342.360500 -1.000000 0.000000 0.000000 0.000000 -1.000000 0.000000 0.000000 0.000000 1.000000 2780.dat
1 0 157.403600 -74.000200 -302.360500 -1.000000 0.000000 0.000000 0.000000 -1.000000 0.000000 0.000000 0.000000 1.000000 2780.dat
1 0 157.403500 -73.999960 -102.360300 -1.000000 0.000000 0.000000 0.000000 -1.000000 0.000000 0.000000 0.000000 1.000000 2780.dat
1 0 157.403500 -73.999960 -62.360440 -1.000000 0.000000 0.000000 0.000000 -1.000000 0.000000 0.000000 0.000000 1.000000 2780.dat
1 0 167.403500 -73.999960 -202.360300 0.000000 1.000000 0.000000 -1.000000 0.000000 0.000000 0.000000 0.000000 1.000000 32278.dat
1 0 187.402700 -74.000060 -162.360700 -1.000000 0.000000 0.000000 0.000000 0.000000 -1.000000 0.000000 -1.000000 0.000000 6558.dat
1 0 187.403500 -73.999960 -242.360300 -1.000000 0.000000 0.000000 0.000000 0.000000 -1.000000 0.000000 -1.000000 0.000000 6558.dat
1 0 207.403500 -153.999900 -242.360300 0.000000 1.000000 0.000000 0.000000 0.000000 -1.000000 -1.000000 0.000000 0.000000 41239.dat
1 0 207.403600 -154.000200 -162.360500 0.000000 1.000000 0.000000 0.000000 0.000000 -1.000000 -1.000000 0.000000 0.000000 41239.dat
1 0 187.403600 -154.000200 -202.360500 0.000000 -1.000000 0.000000 -1.000000 0.000000 0.000000 0.000000 0.000000 -1.000000 41239.dat
1 0 167.403500 -174.000200 -322.360500 0.000000 0.000000 -1.000000 0.000000 1.000000 0.000000 1.000000 0.000000 0.000000 42003.dat
1 0 167.403500 -173.999800 -82.360360 0.000000 0.000000 -1.000000 0.000000 1.000000 0.000000 1.000000 0.000000 0.000000 42003.dat
1 0 207.403500 -153.999900 -242.360300 -1.000000 0.000000 0.000000 0.000000 0.000000 -1.000000 0.000000 -1.000000 0.000000 6558.dat
1 0 207.403600 -154.000200 -162.360500 -1.000000 0.000000 0.000000 0.000000 0.000000 -1.000000 0.000000 -1.000000 0.000000 6558.dat
1 0 167.403500 -194.000000 -122.360300 0.000000 0.000000 1.000000 -1.000000 0.000000 0.000000 0.000000 -1.000000 0.000000 32140.dat
1 0 167.403200 -194.000100 -282.359400 0.000000 0.000000 1.000000 -1.000004 0.000000 0.000000 0.000000 -1.000004 0.000000 32140.dat
1 0 237.405900 -34.000200 -222.359900 -1.000009 0.000000 0.000000 0.000000 -1.000000 0.000000 0.000000 0.000000 1.000009 2780.dat
1 0 217.403600 -34.000200 -162.360500 -1.000000 0.000000 0.000000 0.000000 -1.000000 0.000000 0.000000 0.000000 1.000000 2780.dat
1 0 247.406100 5.999800 -202.359900 0.000000 0.000000 -1.000000 0.000000 1.000000 0.000000 1.000000 0.000000 0.000000 99948.dat
1 0 167.403500 -193.999800 -101.170300 0.000000 0.000000 -1.000000 0.000000 1.000000 0.000000 1.000000 0.000000 0.000000 4519.dat
1 0 167.403200 -194.000100 -304.079500 0.000000 0.000000 -1.000000 0.000000 1.000000 0.000000 1.000000 0.000000 0.000000 4519.dat
1 0 227.403500 -214.000000 -242.360300 0.000000 0.000000 -1.000000 0.000000 1.000000 0.000000 1.000000 0.000000 0.000000 32054.dat
1 0 227.403500 -214.000000 -132.360300 0.000000 0.000000 1.000000 0.000000 1.000000 0.000000 -1.000000 0.000000 0.000000 43093.dat
1 0 227.403500 -254.000000 -162.360300 0.000000 0.000000 1.000000 0.000000 1.000000 0.000000 -1.000000 0.000000 0.000000 32054.dat
1 0 227.403500 -214.000000 -162.360300 0.000000 0.000000 1.000000 0.000000 1.000000 0.000000 -1.000000 0.000000 0.000000 32054.dat
1 0 227.403500 -214.000000 -272.360300 0.000000 0.000000 -1.000000 0.000000 1.000000 0.000000 1.000000 0.000000 0.000000 43093.dat
1 0 217.403500 -274.000000 -162.360300 -1.000000 0.000000 0.000000 0.000000 -0.798630 0.601823 0.000000 0.601823 0.798630 2780.dat
1 0 217.403500 -274.000000 -242.360300 -1.000000 0.000000 0.000000 0.000000 -0.798630 0.601823 0.000000 0.601823 0.798630 2780.dat
1 0 237.405800 -34.000200 -182.359700 -1.000000 0.000000 0.000000 0.000000 -1.000000 0.000000 0.000000 0.000000 1.000000 2780.dat
1 0 217.403500 -33.999900 -242.360300 -1.000000 0.000000 0.000000 0.000000 -1.000000 0.000000 0.000000 0.000000 1.000000 2780.dat
1 0 207.403600 -174.000200 -82.360500 0.000000 0.000000 -1.000000 0.000000 1.000000 0.000000 1.000000 0.000000 0.000000 42003.dat
1 0 207.403600 -174.000200 -322.360500 0.000000 0.000000 -1.000000 0.000000 1.000000 0.000000 1.000000 0.000000 0.000000 42003.dat
0 STEP
1 0 -52.596280 -54.000000 -322.360500 0.000000 0.000001 -1.000000 0.000000 1.000000 0.000001 1.000000 0.000000 0.000000 95658.dat
1 0 -52.596440 -53.999790 -82.360490 0.000000 0.000001 -1.000000 0.000000 0.999998 0.000001 0.999998 0.000000 0.000000 95658.dat
1 0 27.403540 -114.027600 -102.360500 -0.000697 0.000000 -1.000000 -1.000000 0.000000 0.000697 0.000000 1.000000 0.000000 32348.dat
1 0 27.403670 -114.027900 -302.360500 -0.000697 -0.000001 -1.000000 -1.000000 0.000000 0.000697 0.000000 1.000000 -0.000001 32348.dat
1 0 -4.579740 -209.893900 -202.360600 0.000000 0.599163 -0.800627 0.000000 0.800627 0.599163 1.000000 0.000000 0.000000 95646.dat
1 0 167.403500 -194.000000 -102.360300 0.000000 0.000000 -1.000000 -1.000000 0.000000 0.000000 0.000000 1.000000 0.000000 32348.dat
1 0 167.403200 -194.000100 -302.359500 0.000000 0.000000 -1.000000 -1.000000 0.000000 0.000000 0.000000 1.000000 0.000000 32348.dat
1 0 -12.596330 -114.000000 -312.360500 0.000000 0.000000 -1.000000 0.000000 -1.000000 0.000000 -1.000000 0.000000 0.000000 2780.dat
1 0 -12.596500 -113.999700 -92.360490 0.000000 0.000000 -1.000000 0.000000 -1.000000 0.000000 -1.000000 0.000000 0.000000 2780.dat
1 0 27.403670 -114.000100 -312.360500 0.000000 0.051659 0.998665 0.000000 -0.998665 0.051659 1.000000 0.000000 0.000000 43093.dat
1 0 27.397430 -113.999800 -91.680500 0.000000 0.051660 -0.998665 0.000000 -0.998665 -0.051660 -1.000000 0.000000 0.000000 43093.dat
1 0 -56.618610 -145.969300 -292.360600 0.000000 0.000000 -1.000000 0.000000 -1.000000 0.000000 -1.000000 0.000000 0.000000 2780.dat
1 0 -44.607660 -129.977400 -112.360500 0.000000 0.000000 -1.000000 0.000000 -1.000000 0.000000 -1.000000 0.000000 0.000000 2780.dat
1 0 -68.630000 -161.960700 -112.360500 0.000000 -0.600558 0.799581 0.000000 -0.799581 -0.600558 1.000000 0.000000 0.000000 43093.dat
1 0 -68.629780 -161.961000 -292.360600 0.000000 -0.799582 0.600558 0.000000 0.600557 0.799582 -1.000000 0.000000 0.000000 43093.dat
1 0 71.403540 -242.000000 -112.180500 0.000000 -0.600000 0.800000 0.000000 -0.800000 -0.600000 1.000000 0.000000 0.000000 43093.dat
1 0 71.403270 -242.000100 -292.359500 0.000000 -0.600000 0.800000 0.000000 0.800000 0.600000 -1.000000 0.000000 0.000000 43093.dat
1 0 83.299530 -225.948000 -112.360300 0.000000 -0.601823 -0.798630 0.000000 -0.798630 0.601823 -1.000000 0.000000 0.000000 2780.dat
1 0 83.403270 -226.000100 -292.359500 0.000000 0.000000 -1.000000 0.000000 -1.000000 0.000000 -1.000000 0.000000 0.000000 2780.dat
0 STEP
1 0 -152.596200 -34.000140 -402.360300 0.000000 0.000000 1.000000 -1.000000 0.000000 0.000000 0.000000 -1.000000 0.000000 6558.dat
1 0 -152.596200 -34.000140 -422.360300 0.000000 0.000000 1.000000 -1.000000 0.000000 0.000000 0.000000 -1.000000 0.000000 6558.dat
1 0 -152.596200 -34.000140 -362.360500 0.000000 0.000000 1.000005 -1.000000 0.000000 0.000000 0.000000 -1.000005 0.000000 6558.dat
1 0 -152.596200 -34.000130 -202.359800 1.000004 0.000000 0.000000 0.000000 1.000000 0.000000 0.000000 0.000000 1.000004 32278.dat
1 0 -152.596200 -34.000140 -242.360100 0.000000 0.000000 1.000004 -1.000000 0.000000 0.000000 0.000000 -1.000004 0.000000 6558.dat
1 0 -152.596400 -34.000090 -162.360600 0.000000 0.000000 1.000006 -1.000000 0.000000 0.000000 0.000000 -1.000005 0.000000 6558.dat
1 0 -152.596400 -34.000090 -42.360120 0.000000 0.000000 1.000004 -1.000000 0.000000 0.000000 0.000000 -1.000004 0.000000 6558.dat
1 0 -152.596300 -14.000080 -202.360500 1.000004 0.000000 0.000000 0.000000 1.000000 0.000000 0.000000 0.000000 1.000004 32316.dat
1 0 -152.596400 -14.000060 -62.361130 1.000000 0.000000 0.000000 0.000000 1.000000 0.000000 0.000000 0.000000 1.000000 40490.dat
1 0 -152.596400 -33.999960 17.638870 0.000000 0.000000 1.000000 0.999997 0.000000 0.000000 0.000000 0.999996 0.000000 6558.dat
1 0 -152.596400 -34.000080 -2.359820 0.000000 0.000000 1.000000 1.000002 0.000000 0.000000 0.000000 1.000002 0.000000 6558.dat
1 0 -152.596400 -54.000080 -82.360110 1.000004 0.000000 0.000000 0.000000 1.000000 0.000000 0.000000 0.000000 1.000004 32525.dat
1 0 -152.596200 -54.000140 -322.360400 1.000000 0.000000 0.000000 0.000000 1.000000 0.000000 0.000000 0.000000 1.000000 32525.dat
1 0 -152.596200 -14.000130 -342.360600 1.000000 0.000000 0.000000 0.000000 1.000000 0.000000 0.000000 0.000000 1.000000 40490.dat
0 STEP
1 0 -52.596680 -53.999790 -12.320760 -0.999997 0.000000 0.000000 0.000000 -0.999998 0.000000 0.000000 0.000000 0.999995 41897.dat
1 0 -152.596400 -34.000000 57.639340 0.000000 0.000000 -1.000000 0.000000 -0.999998 0.000000 -0.999998 0.000000 0.000000 32009.dat
1 0 167.403500 -14.000040 -22.360610 1.000000 0.000000 0.000000 0.000000 0.999998 0.000000 0.000000 0.000000 0.999998 32526.dat
1 0 167.403600 -34.000000 57.639460 0.000000 0.000000 1.000000 -0.999999 0.000000 0.000000 0.000000 -0.999998 0.000000 6558.dat
1 0 207.403400 -34.000000 57.639460 0.000000 0.000000 1.000000 -0.999999 0.000000 0.000000 0.000000 -0.999998 0.000000 6558.dat
1 0 167.403600 -33.999990 57.639460 0.000000 0.000000 -1.000000 0.000000 0.999999 0.000000 0.999998 0.000000 0.000000 32278.dat
1 0 147.403700 -33.999990 57.639460 0.000000 0.000000 1.000000 -0.999999 0.000000 0.000000 0.000000 -0.999998 0.000000 6558.dat
1 0 307.403400 -33.999990 57.639460 0.000000 0.000000 1.000000 -0.999999 0.000000 0.000000 0.000000 -0.999998 0.000000 6558.dat
1 0 247.403400 -34.000000 57.639460 0.000000 0.000000 1.000000 -0.999999 0.000000 0.000000 0.000000 -0.999998 0.000000 6558.dat
1 0 247.403600 -14.000030 57.639460 0.000000 0.000000 1.000000 0.000000 0.999998 0.000000 -0.999998 0.000000 0.000000 32526.dat
1 0 27.403710 -14.000020 57.639340 0.000000 0.000000 -1.000000 0.000000 0.999998 0.000000 0.999998 0.000000 0.000000 41239.dat
1 0 27.403500 -24.000000 57.639340 0.000000 0.000000 -1.000000 0.999999 0.000000 0.000000 0.000000 -0.999998 0.000000 2780.dat
1 0 -32.596320 -44.000020 57.639340 0.000000 0.000000 -1.000000 -1.000000 0.000000 0.000000 0.000000 1.000000 0.000000 43093.dat
1 0 -12.596380 -34.000000 57.639340 0.000000 0.000000 1.000000 0.999998 0.000000 0.000000 0.000000 0.999998 0.000000 6558.dat
1 0 167.403500 -34.000000 -22.360610 1.000000 0.000000 0.000000 0.000000 0.999998 0.000000 0.000000 0.000000 0.999998 55615.dat
1 0 327.403300 -33.999960 57.639160 0.000000 0.000000 1.000000 -0.999999 0.000000 0.000000 0.000000 -0.999998 0.000000 6558.dat
1 0 327.403600 -33.999980 17.639360 0.000000 0.000000 1.000000 -0.999999 0.000000 0.000000 0.000000 -0.999998 0.000000 6558.dat
1 0 327.403600 -33.999960 37.639450 1.000000 0.000000 0.000000 0.000000 0.999999 0.000000 0.000000 0.000000 0.999998 32523.dat
1 0 247.403400 -53.999940 57.639160 0.000000 0.000000 1.000000 0.000000 0.999998 0.000000 -0.999998 0.000000 0.000000 32526.dat
1 0 -52.596320 -54.000000 57.640750 0.000000 -1.000000 0.000000 1.000002 0.000000 0.000000 0.000000 0.000000 1.000002 32184.dat
1 0 107.403600 -53.999960 57.639340 0.000000 0.000000 -1.000000 0.000000 1.000000 0.000000 1.000000 0.000000 0.000000 41239.dat
1 0 87.403510 -53.999960 -42.360490 0.000000 0.000000 1.000000 0.999999 0.000000 0.000000 0.000000 0.999998 0.000000 32526.dat
1 0 167.403500 -53.999960 -32.360430 0.000000 0.000000 -1.000000 0.000000 -1.000000 0.000000 -1.000000 0.000000 0.000000 2780.dat
1 0 107.403500 -53.999960 -52.360490 0.000000 0.000000 -1.000000 0.000000 -0.999998 0.000000 -0.999998 0.000000 0.000000 43093.dat
1 0 87.403510 -53.999960 -52.360490 0.000000 0.000000 -1.000000 0.000000 -0.999998 0.000000 -0.999998 0.000000 0.000000 2780.dat
1 0 127.403500 -53.999960 -52.360490 0.000000 0.000000 -1.000000 0.000000 -0.999998 0.000000 -0.999998 0.000000 0.000000 2780.dat
1 0 -72.596320 -44.000020 57.639280 0.000000 0.000000 -1.000000 -1.000000 0.000000 0.000000 0.000000 1.000000 0.000000 43093.dat
1 0 -52.596260 -54.000480 -12.321000 -0.999997 0.000000 0.000000 0.000000 0.999998 0.000000 0.000000 0.000000 -0.999995 56908.dat
1 0 -52.596320 -54.000000 47.640760 0.000000 0.000000 1.000000 0.000000 1.000000 0.000000 -1.000000 0.000000 0.000000 43093.dat
1 0 -52.596320 -53.999800 -42.360800 0.000000 0.000000 0.999997 -0.999998 0.000000 0.000000 0.000000 -0.999995 0.000000 32523.dat
1 0 -52.596320 -53.999800 -42.320760 0.000000 0.000000 0.999997 0.000000 0.999998 0.000000 -0.999995 0.000000 0.000000 44294.dat
1 0 -52.596320 -54.002860 27.640760 1.000000 0.000000 0.000000 0.000000 1.000000 0.000000 0.000000 0.000000 1.000000 59443.dat
1 0 -32.596500 -53.999780 -52.360680 0.000000 0.000000 0.999997 0.000000 0.999998 0.000000 -0.999995 0.000000 0.000000 2780.dat
1 0 -72.596260 -53.999840 -52.360680 0.000000 0.000000 0.999997 0.000000 0.999998 0.000000 -0.999995 0.000000 0.000000 2780.dat
0 STEP
1 0 -52.596300 -54.000000 -389.070600 1.000000 0.000000 0.000000 0.000000 1.000000 0.000000 0.000000 0.000000 1.000000 41897.dat
1 0 -52.596280 -54.000020 -362.400500 0.000000 0.000000 -1.000000 0.000000 1.000000 0.000000 1.000000 0.000000 0.000000 44294.dat
1 0 167.403700 -34.000140 -382.360600 -1.000000 0.000000 0.000000 0.000000 1.000000 0.000000 0.000000 0.000000 -1.000000 55615.dat
1 0 167.403700 -14.000140 -382.360600 1.000000 0.000000 0.000000 0.000000 -1.000000 0.000000 0.000000 0.000000 -1.000000 32526.dat
1 0 167.403800 -34.000140 -462.360400 0.000000 0.000000 1.000000 -1.000000 0.000000 0.000000 0.000000 -1.000000 0.000000 6558.dat
1 0 207.403700 -34.000140 -462.360400 0.000000 0.000000 1.000000 -1.000000 0.000000 0.000000 0.000000 -1.000000 0.000000 6558.dat
1 0 167.403800 -34.000130 -462.360400 0.000000 0.000000 -1.000000 0.000000 1.000000 0.000000 1.000000 0.000000 0.000000 32278.dat
1 0 147.403900 -34.000130 -462.360400 0.000000 0.000000 1.000000 -1.000000 0.000000 0.000000 0.000000 -1.000000 0.000000 6558.dat
1 0 307.403700 -34.000130 -462.360400 0.000000 0.000000 1.000000 -1.000000 0.000000 0.000000 0.000000 -1.000000 0.000000 6558.dat
1 0 247.403700 -34.000140 -462.360400 0.000000 0.000000 1.000000 -1.000000 0.000000 0.000000 0.000000 -1.000000 0.000000 6558.dat
1 0 247.403700 -14.000130 -462.360400 0.000000 0.000000 1.000000 0.000000 -1.000000 0.000000 1.000000 0.000000 0.000000 32526.dat
1 0 27.403800 -14.000130 -462.360500 0.000000 0.000000 -1.000000 0.000000 1.000000 0.000000 1.000000 0.000000 0.000000 41239.dat
1 0 27.403800 -24.000130 -462.360500 0.000000 0.000000 -1.000000 1.000000 0.000000 0.000000 0.000000 -1.000000 0.000000 2780.dat
1 0 327.403600 -34.000130 -422.360400 0.000000 0.000000 1.000000 -1.000000 0.000000 0.000000 0.000000 -1.000000 0.000000 6558.dat
1 0 327.403600 -34.000140 -462.360400 0.000000 0.000000 1.000000 -1.000000 0.000000 0.000000 0.000000 -1.000000 0.000000 6558.dat
1 0 327.403600 -34.000120 -442.360400 1.000000 0.000000 0.000000 0.000000 1.000000 0.000000 0.000000 0.000000 1.000000 32523.dat
1 0 -152.596200 -34.000150 -462.360500 0.000000 0.000000 -1.000000 0.000000 1.000000 0.000000 1.000000 0.000000 0.000000 32009.dat
1 0 -12.596160 -34.000150 -462.360500 0.000000 0.000000 1.000000 -1.000000 0.000000 0.000000 0.000000 -1.000000 0.000000 6558.dat
1 0 -32.596160 -44.000140 -462.360500 0.000000 0.000000 -1.000000 -1.000000 0.000000 0.000000 0.000000 1.000000 0.000000 43093.dat
1 0 -72.596160 -44.000120 -462.360500 0.000000 0.000000 -1.000000 -1.000000 0.000000 0.000000 0.000000 1.000000 0.000000 43093.dat
1 0 247.403700 -54.000140 -462.360400 0.000000 0.000000 1.000000 0.000000 -1.000000 0.000000 1.000000 0.000000 0.000000 32526.dat
1 0 -52.596160 -54.000140 -462.360500 0.000000 -1.000000 0.000000 1.000000 0.000000 0.000000 0.000000 0.000000 1.000000 32184.dat
1 0 -52.596220 -54.002860 -432.400500 1.000000 0.000000 0.000000 0.000000 1.000000 0.000000 0.000000 0.000000 1.000000 59443.dat
1 0 -52.596220 -54.000000 -452.400500 0.000000 0.000000 -1.000000 0.000000 1.000000 0.000000 1.000000 0.000000 0.000000 43093.dat
1 0 -92.596160 -24.000150 -462.360500 0.000000 0.000000 -1.000000 1.000000 0.000000 0.000000 0.000000 -1.000000 0.000000 2780.dat
1 0 107.403800 -54.000160 -462.360500 0.000000 0.000000 -1.000000 0.000000 1.000000 0.000000 1.000000 0.000000 0.000000 41239.dat
1 0 -52.596300 -54.000700 -389.070600 1.000000 0.000000 0.000000 0.000000 1.000000 0.000000 0.000000 0.000000 1.000000 56908.dat
1 0 -72.596270 -54.000000 -352.360600 0.000000 0.000000 -1.000000 0.000000 1.000000 0.000000 1.000000 0.000000 0.000000 2780.dat
1 0 -52.596280 -54.000000 -362.360600 0.000000 0.000000 -1.000000 -1.000000 0.000000 0.000000 0.000000 1.000000 0.000000 32523.dat
1 0 -32.596270 -54.000020 -352.360600 0.000000 0.000000 -1.000000 0.000000 1.000000 0.000000 1.000000 0.000000 0.000000 2780.dat
1 0 87.403780 -54.000160 -362.360600 0.000000 0.000000 1.000000 1.000000 0.000000 0.000000 0.000000 1.000000 0.000000 32526.dat
1 0 107.403800 -54.000160 -352.360600 0.000000 0.000000 -1.000000 0.000000 1.000000 0.000000 1.000000 0.000000 0.000000 43093.dat
1 0 87.403780 -54.000140 -352.360600 0.000000 0.000000 -1.000000 0.000000 -1.000000 0.000000 -1.000000 0.000000 0.000000 2780.dat
1 0 127.403800 -54.000180 -352.360600 0.000000 0.000000 -1.000000 0.000000 -1.000000 0.000000 -1.000000 0.000000 0.000000 2780.dat
1 0 247.406100 5.999800 -202.359900 0.000000 -1.000000 0.000000 0.000000 0.000000 -1.000000 1.000000 0.000000 0.000000 92911.dat
1 0 227.405700 -34.000200 -202.359900 0.000000 1.000000 0.000000 -1.000000 0.000000 0.000000 0.000000 0.000000 1.000000 32316.dat
1 0 227.403500 -254.000000 -252.360300 0.000000 0.000000 -1.000000 0.000000 1.000000 0.000000 1.000000 0.000000 0.000000 2780.dat
1 0 227.403500 -284.000000 -182.360300 0.000000 0.000000 -1.000000 -1.000000 0.000000 0.000000 0.000000 1.000000 0.000000 2780.dat
1 0 227.403500 -284.000000 -222.360300 0.000000 0.000000 -1.000000 -1.000000 0.000000 0.000000 0.000000 1.000000 0.000000 2780.dat
1 0 187.403200 -194.000100 -292.359400 0.000000 0.000000 1.000000 0.000000 1.000000 0.000000 -1.000000 0.000000 0.000000 2780.dat
1 0 147.403700 -304.000000 -222.360400 0.000000 1.000000 0.000000 -1.000000 0.000000 0.000000 0.000000 0.000000 1.000000 2780.dat
1 0 147.403700 -304.000100 -142.360300 0.000000 1.000000 0.000000 -1.000000 0.000000 0.000000 0.000000 0.000000 1.000000 2780.dat
1 0 227.403500 -304.000100 -262.360800 0.000000 1.000000 0.000000 -1.000000 0.000000 0.000000 0.000000 0.000000 1.000000 2780.dat
1 0 147.403700 -324.000000 -182.360400 0.000000 1.000000 0.000000 -1.000000 0.000000 0.000000 0.000000 0.000000 1.000000 2780.dat
1 0 227.403500 -324.000000 -142.360300 0.000000 1.000000 0.000000 -1.000000 0.000000 0.000000 0.000000 0.000000 1.000000 2780.dat
1 0 147.403600 -324.000000 -262.360800 0.000000 1.000000 0.000000 -1.000000 0.000000 0.000000 0.000000 0.000000 1.000000 2780.dat
1 0 227.403500 -324.000100 -222.360400 0.000000 1.000000 0.000000 -1.000000 0.000000 0.000000 0.000000 0.000000 1.000000 2780.dat
1 0 147.403700 -344.000000 -142.360300 0.000000 1.000000 0.000000 -1.000000 0.000000 0.000000 0.000000 0.000000 1.000000 2780.dat
1 0 147.403700 -344.000000 -222.360400 0.000000 1.000000 0.000000 -1.000000 0.000000 0.000000 0.000000 0.000000 1.000000 2780.dat
1 0 227.403600 -344.000000 -262.360800 0.000000 1.000000 0.000000 -1.000000 0.000000 0.000000 0.000000 0.000000 1.000000 2780.dat
1 0 227.403600 -344.000000 -182.360400 0.000000 1.000000 0.000000 -1.000000 0.000000 0.000000 0.000000 0.000000 1.000000 2780.dat
1 0 227.403700 -364.000000 -142.360300 0.000000 1.000000 0.000000 -1.000000 0.000000 0.000000 0.000000 0.000000 1.000000 2780.dat
1 0 227.403700 -364.000000 -222.360400 0.000000 1.000000 0.000000 -1.000000 0.000000 0.000000 0.000000 0.000000 1.000000 2780.dat
1 0 147.403700 -364.000100 -262.360800 0.000000 1.000000 0.000000 -1.000000 0.000000 0.000000 0.000000 0.000000 1.000000 2780.dat
1 0 147.403700 -364.000000 -182.360400 0.000000 1.000000 0.000000 -1.000000 0.000000 0.000000 0.000000 0.000000 1.000000 2780.dat
1 0 167.403600 -374.000000 -132.360400 0.000000 0.000000 1.000000 0.000000 1.000000 0.000000 -1.000000 0.000000 0.000000 2780.dat
1 0 207.403700 -374.000000 -132.360400 0.000000 0.000000 1.000000 0.000000 1.000000 0.000000 -1.000000 0.000000 0.000000 2780.dat
1 0 187.404400 -194.001100 -112.361700 -0.000001 0.000000 -1.000006 0.000000 1.000004 0.000000 1.000012 0.000000 -0.000001 2780.dat
1 0 207.403500 -294.000000 -122.360400 0.000000 0.000000 -1.000000 0.000000 1.000000 0.000000 1.000000 0.000000 0.000000 6558.dat
1 0 187.404400 -254.001200 -102.361700 -1.000008 0.000000 0.000000 0.000000 0.000000 1.000005 0.000000 1.000014 0.000000 32524.dat
1 0 187.404400 -314.001500 -122.361900 0.000000 0.000000 -1.000000 0.000000 1.000000 0.000000 1.000000 0.000000 0.000000 6558.dat
1 0 187.404400 -294.001400 -122.361900 0.000000 0.000000 -1.000000 0.000000 1.000000 0.000000 1.000000 0.000000 0.000000 6558.dat
1 0 207.404500 -314.001500 -122.361500 0.000000 0.000000 -1.000002 0.000000 1.000000 0.000000 1.000002 0.000000 0.000000 6558.dat
1 0 207.404000 -293.999900 -282.361300 0.000000 0.000000 1.000001 0.000000 1.000001 0.000000 -1.000000 0.000000 0.000000 6558.dat
1 0 207.403600 -254.000000 -302.360400 1.000001 0.000000 0.000000 0.000000 0.000000 1.000001 0.000000 -1.000000 0.000000 32524.dat
1 0 207.403500 -314.000100 -282.360400 0.000000 0.000000 1.000001 0.000000 1.000001 0.000000 -1.000000 0.000000 0.000000 6558.dat
1 1 187.403600 -154.000200 -82.360520 1.000000 0.000000 0.000000 0.000000 1.000000 0.000000 0.000000 0.000000 1.000000 6558.dat
1 0 207.404500 -254.001500 -102.361500 -1.000000 0.000000 0.000000 0.000000 0.000000 1.000000 0.000000 1.000000 0.000000 32524.dat
1 4 207.403600 -194.000200 -93.310520 0.000000 0.000000 1.000000 0.000000 1.000000 0.000000 -1.000000 0.000000 0.000000 32062.dat
1 1 187.403600 -154.000200 -322.360500 -1.000000 0.000000 0.000000 0.000000 1.000000 0.000000 0.000000 0.000000 -1.000000 6558.dat
1 4 207.403600 -194.000200 -312.110500 0.000000 0.000000 1.000000 0.000000 1.000000 0.000000 -1.000000 0.000000 0.000000 32062.dat
1 19 -152.596400 -64.000080 -182.360500 0.000000 0.000000 -1.000000 -1.000000 0.000000 0.000000 0.000000 1.000000 0.000000 3749.dat
1 19 -152.596400 -64.000080 -82.360000 0.000000 0.000000 -1.000000 -1.000000 0.000000 0.000000 0.000000 1.000000 0.000000 3749.dat
1 0 -152.596400 -94.000080 -82.360010 1.000001 0.000000 0.000000 0.000000 0.000000 -1.000001 0.000000 1.000000 0.000000 32014.dat
1 0 -152.596300 -93.999870 -131.741500 0.000000 0.000000 -1.000001 0.000000 1.000001 0.000000 1.000000 0.000000 0.000000 3705.dat
1 0 -152.596300 -93.999870 -182.281600 -1.000001 0.000000 0.000000 0.000000 0.000000 -1.000001 0.000000 -1.000000 0.000000 32014.dat
1 0 107.403800 -54.000160 -189.550600 0.000000 0.000000 -1.000003 0.000000 -1.000000 0.000000 -1.000003 0.000000 0.000001 95654.dat
1 71 187.403200 -274.000100 -302.359500 1.000000 0.000000 0.000000 0.000000 0.000000 1.000000 0.000000 -1.000000 0.000000 32525.dat
1 0 187.403200 -334.000100 -282.359500 0.000000 0.000000 1.000000 0.000000 1.000000 0.000000 -1.000000 0.000000 0.000000 6558.dat
1 0 134.349100 -233.392400 -322.359500 0.984808 0.000000 -0.173649 0.173649 0.000000 0.984808 0.000000 -1.000000 0.000000 32524.dat
1 0 127.403200 -194.000100 -312.359500 0.000000 0.000000 1.000000 0.000000 1.000000 0.000000 -1.000000 0.000000 0.000000 2780.dat
1 0 144.976900 -291.573600 -312.359600 0.000001 0.707106 0.707107 0.000000 0.707107 -0.707107 -1.000000 0.000000 0.000001 3705.dat
1 0 107.403700 -54.000160 -199.550500 0.000000 0.000000 1.000000 0.000000 1.000000 0.000000 -1.000000 0.000000 0.000000 3708.dat
1 0 87.403670 -54.000120 -195.820500 0.000000 0.000000 1.000000 0.000000 1.000000 0.000000 -1.000000 0.000000 0.000000 3708.dat
1 0 127.403700 -54.000170 -197.550500 0.000000 0.000000 1.000000 0.000000 1.000000 0.000000 -1.000000 0.000000 0.000000 3708.dat
1 0x24121C -152.596400 -93.999870 -126.901500 0.000000 1.000000 0.000000 0.000000 0.000000 -1.000000 -1.000000 0.000000 0.000000 95650.dat
0 STEP
0 NOFILE
0 FILE SubModel Group 1
0 SubModel Group 1
0 Name: SubModel Group 1
0 Author: 
0 CustomBrick
0 FlexibleBrickControlPointUnitLength -1
0 FlexibleBrickLockedControlPoint 
0 NumOfBricks 4
1 0 30.084950 -120.144100 -6.273380 0.000000 0.000000 -1.000000 0.000000 -1.000000 0.000000 -1.000000 0.000000 0.000000 2780.dat
0 STEP
1 0 -54.767900 -35.291350 3.726560 0.707106 -0.000002 0.707107 0.707107 -0.000001 -0.707107 0.000002 1.000000 0.000001 32271.dat
1 0 69.682970 -114.487200 -6.453250 0.000000 -0.149416 -0.988774 -0.000001 0.988774 -0.149416 1.000000 0.000001 0.000000 3749.dat
1 0 49.872790 -117.236000 -16.453270 -0.000001 -0.137445 -0.990510 0.000000 0.990510 -0.137445 1.000000 0.000000 -0.000001 95650.dat
0 STEP
0 NOFILE
