0 FILE Robot_1.ldr.io
0 Untitled Model
0 Name: Robot_1.ldr
0 Author: 
0 CustomBrick
0 FlexibleBrickControlPointUnitLength -1
0 FlexibleBrickLockedControlPoint 
1 0 267.403500 -154.000000 -242.360300 1.000000 0.000000 0.000000 0.000000 0.000000 -1.000000 0.000000 1.000000 0.000000 60484.dat
1 0 267.403500 -154.000000 -162.360300 1.000000 0.000000 0.000000 0.000000 0.000000 -1.000000 0.000000 1.000000 0.000000 60484.dat
1 0 267.403600 -154.000000 -203.660300 0.000000 0.000000 -1.000000 0.000000 1.000000 0.000000 1.000000 0.000000 0.000000 60485.dat
1 0 267.403600 -154.000000 -122.160300 1.000000 0.000000 0.000000 0.000000 1.000000 0.000000 0.000000 0.000000 1.000000 32498.dat
1 0 267.403600 -154.000000 -283.660300 1.000000 0.000000 0.000000 0.000000 1.000000 0.000000 0.000000 0.000000 1.000000 32498.dat
1 0 267.403600 -154.000000 -174.600300 -1.000000 0.000000 0.000000 0.000000 1.000000 0.000000 0.000000 0.000000 -1.000000 6589.dat
1 0 347.403600 -134.000000 -141.620300 0.000000 0.000000 -1.000000 -1.000000 0.000000 0.000000 0.000000 1.000000 0.000000 32526.dat
1 0 323.672100 -134.702400 -351.631400 -0.982628 0.016980 -0.184809 -0.184781 0.003193 0.982775 0.017278 0.999851 0.000000 32271.dat
1 0 327.721900 -134.191900 -53.462720 -0.983970 0.016785 -0.177543 -0.177521 0.002793 0.984113 0.017015 0.999855 0.000232 32271.dat
1 0 326.226900 -134.332200 -201.691400 -0.982627 -0.184815 -0.016979 -0.184787 0.982773 -0.003193 0.017276 0.000000 -0.999851 59443.dat
1 0 347.403600 -134.000000 -261.450300 0.000000 0.000000 -1.000000 -1.000000 0.000000 0.000000 0.000000 1.000000 0.000000 32526.dat
1 0 328.032100 -134.138400 -34.965350 0.983970 -0.177548 0.016722 0.177520 0.984112 0.003146 -0.017015 -0.000127 0.999855 32123a.dat
1 0 323.368200 -134.759100 -369.536500 0.982627 -0.184814 0.016979 0.184787 0.982773 0.003193 -0.017277 0.000000 0.999851 32123a.dat
1 0 326.735300 -134.356000 -112.234100 -0.016785 -0.177543 0.983970 -0.002793 0.984113 0.177521 -0.999855 0.000232 -0.017015 60485.dat
1 0 324.693700 -134.592100 -291.677900 -0.017045 -0.184788 0.982631 -0.002841 0.982778 0.184766 -0.999851 0.000358 -0.017276 60485.dat
1 0 270.954900 1.883310 -35.608750 0.897287 0.441106 0.016943 -0.441212 0.897394 0.003115 -0.013831 -0.010270 0.999851 32123a.dat
1 0 269.658000 1.665030 -112.876200 -0.016785 0.441112 0.897294 -0.002793 0.897397 -0.441215 -0.999854 -0.009912 -0.013831 60485.dat
1 0 265.320900 0.881260 -370.276300 0.900532 0.434448 0.016978 -0.434558 0.900638 0.003193 -0.013904 -0.010253 0.999852 32123a.dat
1 0 266.597400 1.062380 -292.416900 -0.016822 0.434474 0.900527 -0.002870 0.900630 -0.434577 -0.999854 -0.009895 -0.013903 60485.dat
1 0 268.107100 1.321160 -202.720000 -0.900527 0.434468 -0.016978 0.434577 0.900629 -0.003193 0.013903 -0.010253 -0.999851 59443.dat
1 0 323.606300 -134.876500 -298.627100 -0.983970 -0.177543 -0.016785 -0.177521 0.984113 -0.002793 0.017015 0.000232 -0.999855 32270.dat
1 0 326.601000 -134.378300 -120.232900 -0.983970 -0.177542 -0.016786 -0.177521 0.984113 -0.002793 0.017015 0.000232 -0.999855 32270.dat
0 STEP
1 0 227.403500 -214.000000 -202.360300 0.000000 1.000000 0.000000 0.000000 0.000000 1.000000 1.000000 0.000000 0.000000 64179.dat
1 0 267.403500 -184.000000 -202.360300 0.000000 -1.000000 0.000000 0.000000 0.000000 -1.000000 1.000000 0.000000 0.000000 99455.dat
1 0 187.403700 -374.000000 -242.360400 0.000000 0.000000 -1.000000 0.000000 1.000000 0.000000 1.000000 0.000000 0.000000 95654.dat
1 0 267.403500 -182.530000 -202.360300 0.000000 1.000000 0.000000 -1.000000 0.000000 0.000000 0.000000 0.000000 1.000000 32062.dat
1 0 267.403500 -172.530000 -202.360300 0.000000 -1.000000 0.000000 0.000000 0.000000 -1.000000 1.000000 0.000000 0.000000 32269.dat
1 0 287.403500 -194.000000 -172.360300 0.000000 0.000000 -1.000000 0.000000 -1.000000 0.000000 -1.000000 0.000000 0.000000 2780.dat
1 0 247.403500 -194.000000 -172.360300 0.000000 0.000000 -1.000000 0.000000 -1.000000 0.000000 -1.000000 0.000000 0.000000 2780.dat
1 0 287.403500 -194.000000 -232.360300 0.000000 0.000000 -1.000000 0.000000 -1.000000 0.000000 -1.000000 0.000000 0.000000 2780.dat
1 0 247.403500 -194.000000 -232.360300 0.000000 0.000000 -1.000000 0.000000 -1.000000 0.000000 -1.000000 0.000000 0.000000 2780.dat
1 0 187.403500 -294.000000 -202.360400 -1.000000 0.000000 0.000000 0.000000 -1.000000 0.000000 0.000000 0.000000 1.000000 64179.dat
1 0 187.403400 -334.000100 -202.360800 -1.000000 0.000000 0.000000 0.000000 -1.000000 0.000000 0.000000 0.000000 1.000000 64179.dat
1 0 187.403500 -314.000100 -202.360400 -1.000000 0.000000 0.000000 0.000000 -1.000000 0.000000 0.000000 0.000000 1.000000 64179.dat
1 0 187.403500 -354.000100 -202.360400 -1.000000 0.000000 0.000000 0.000000 -1.000000 0.000000 0.000000 0.000000 1.000000 64179.dat
1 0 187.403600 -374.000000 -202.360400 -1.000000 0.000000 0.000000 0.000000 -1.000000 0.000000 0.000000 0.000000 1.000000 64179.dat
0 STEP
1 0 157.403700 -74.000220 -342.360500 -1.000000 0.000000 0.000000 0.000000 -1.000000 0.000000 0.000000 0.000000 1.000000 2780.dat
1 0 157.403600 -74.000200 -302.360500 -1.000000 0.000000 0.000000 0.000000 -1.000000 0.000000 0.000000 0.000000 1.000000 2780.dat
1 0 157.403500 -73.999960 -102.360300 -1.000000 0.000000 0.000000 0.000000 -1.000000 0.000000 0.000000 0.000000 1.000000 2780.dat
1 0 157.403500 -73.999960 -62.360440 -1.000000 0.000000 0.000000 0.000000 -1.000000 0.000000 0.000000 0.000000 1.000000 2780.dat
1 0 167.403500 -73.999960 -202.360300 0.000000 1.000000 0.000000 -1.000000 0.000000 0.000000 0.000000 0.000000 1.000000 32278.dat
1 0 187.402700 -74.000060 -162.360700 -1.000000 0.000000 0.000000 0.000000 0.000000 -1.000000 0.000000 -1.000000 0.000000 6558.dat
1 0 187.403500 -73.999960 -242.360300 -1.000000 0.000000 0.000000 0.000000 0.000000 -1.000000 0.000000 -1.000000 0.000000 6558.dat
1 0 207.403500 -153.999900 -242.360300 0.000000 1.000000 0.000000 0.000000 0.000000 -1.000000 -1.000000 0.000000 0.000000 41239.dat
1 0 207.403600 -154.000200 -162.360500 0.000000 1.000000 0.000000 0.000000 0.000000 -1.000000 -1.000000 0.000000 0.000000 41239.dat
1 0 187.403600 -154.000200 -202.360500 0.000000 -1.000000 0.000000 -1.000000 0.000000 0.000000 0.000000 0.000000 -1.000000 41239.dat
1 0 167.403500 -174.000200 -322.360500 0.000000 0.000000 -1.000000 0.000000 1.000000 0.000000 1.000000 0.000000 0.000000 42003.dat
1 0 167.403500 -173.999800 -82.360360 0.000000 0.000000 -1.000000 0.000000 1.000000 0.000000 1.000000 0.000000 0.000000 42003.dat
1 0 207.403500 -153.999900 -242.360300 -1.000000 0.000000 0.000000 0.000000 0.000000 -1.000000 0.000000 -1.000000 0.000000 6558.dat
1 0 207.403600 -154.000200 -162.360500 -1.000000 0.000000 0.000000 0.000000 0.000000 -1.000000 0.000000 -1.000000 0.000000 6558.dat
1 0 167.403500 -194.000000 -122.360300 0.000000 0.000000 1.000000 -1.000000 0.000000 0.000000 0.000000 -1.000000 0.000000 32140.dat
1 0 167.403200 -194.000100 -282.359400 0.000000 0.000000 1.000000 -1.000004 0.000000 0.000000 0.000000 -1.000004 0.000000 32140.dat
1 0 197.405900 -34.000200 -222.359900 -1.000009 0.000000 0.000000 0.000000 -1.000000 0.000000 0.000000 0.000000 1.000009 2780.dat
1 0 197.403600 -34.000200 -162.360500 -1.000000 0.000000 0.000000 0.000000 -1.000000 0.000000 0.000000 0.000000 1.000000 2780.dat
1 0 207.405900 5.999800 -202.359900 0.000000 0.000000 -1.000009 0.000000 1.000000 0.000000 1.000009 0.000000 0.000000 99948.dat
1 0 167.403500 -193.999800 -101.170300 0.000000 0.000000 -1.000000 0.000000 1.000000 0.000000 1.000000 0.000000 0.000000 4519.dat
1 0 167.403200 -194.000100 -304.079500 0.000000 0.000000 -1.000000 0.000000 1.000000 0.000000 1.000000 0.000000 0.000000 4519.dat
1 0 227.403500 -214.000000 -242.360300 0.000000 0.000000 -1.000000 0.000000 1.000000 0.000000 1.000000 0.000000 0.000000 32054.dat
1 0 227.403500 -214.000000 -132.360300 0.000000 0.000000 1.000000 0.000000 1.000000 0.000000 -1.000000 0.000000 0.000000 43093.dat
1 0 227.403500 -254.000000 -162.360300 0.000000 0.000000 1.000000 0.000000 1.000000 0.000000 -1.000000 0.000000 0.000000 32054.dat
1 0 227.403500 -214.000000 -162.360300 0.000000 0.000000 1.000000 0.000000 1.000000 0.000000 -1.000000 0.000000 0.000000 32054.dat
1 0 227.403500 -214.000000 -272.360300 0.000000 0.000000 -1.000000 0.000000 1.000000 0.000000 1.000000 0.000000 0.000000 43093.dat
1 0 217.403500 -274.000000 -162.360300 -1.000000 0.000000 0.000000 0.000000 -0.798630 0.601823 0.000000 0.601823 0.798630 2780.dat
1 0 217.403500 -274.000000 -242.360300 -1.000000 0.000000 0.000000 0.000000 -0.798630 0.601823 0.000000 0.601823 0.798630 2780.dat
1 0 197.405900 -34.000200 -182.359400 -1.000009 0.000000 0.000000 0.000000 -1.000000 0.000000 0.000000 0.000000 1.000009 2780.dat
1 0 197.405900 -34.000190 -242.360000 -1.000009 0.000000 0.000000 0.000000 -1.000000 0.000000 0.000000 0.000000 1.000009 2780.dat
1 0 207.403600 -174.000200 -82.360500 0.000000 0.000000 -1.000000 0.000000 1.000000 0.000000 1.000000 0.000000 0.000000 42003.dat
1 0 207.403600 -174.000200 -322.360500 0.000000 0.000000 -1.000000 0.000000 1.000000 0.000000 1.000000 0.000000 0.000000 42003.dat
0 STEP
1 0 -52.596280 -54.000000 -322.360500 0.000000 0.000001 -1.000000 0.000000 1.000000 0.000001 1.000000 0.000000 0.000000 95658.dat
1 0 -52.596440 -53.999790 -82.360490 0.000000 0.000001 -1.000000 0.000000 0.999998 0.000001 0.999998 0.000000 0.000000 95658.dat
1 0 27.403540 -114.027600 -102.360500 -0.000697 0.000000 -1.000000 -1.000000 0.000000 0.000697 0.000000 1.000000 0.000000 32348.dat
1 0 27.403670 -114.027900 -302.360500 -0.000697 -0.000001 -1.000000 -1.000000 0.000000 0.000697 0.000000 1.000000 -0.000001 32348.dat
1 0 -4.579740 -209.893900 -202.360600 0.000000 0.599163 -0.800627 0.000000 0.800627 0.599163 1.000000 0.000000 0.000000 95646.dat
1 0 167.403500 -194.000000 -102.360300 0.000000 0.000000 -1.000000 -1.000000 0.000000 0.000000 0.000000 1.000000 0.000000 32348.dat
1 0 167.403200 -194.000100 -302.359500 0.000000 0.000000 -1.000000 -1.000000 0.000000 0.000000 0.000000 1.000000 0.000000 32348.dat
1 0 -12.596330 -114.000000 -312.360500 0.000000 0.000000 -1.000000 0.000000 -1.000000 0.000000 -1.000000 0.000000 0.000000 2780.dat
1 0 -12.596500 -113.999700 -92.360490 0.000000 0.000000 -1.000000 0.000000 -1.000000 0.000000 -1.000000 0.000000 0.000000 2780.dat
1 0 27.403670 -114.000100 -312.360500 0.000000 0.051659 0.998665 0.000000 -0.998665 0.051659 1.000000 0.000000 0.000000 43093.dat
1 0 27.397430 -113.999800 -91.680500 0.000000 0.051660 -0.998665 0.000000 -0.998665 -0.051660 -1.000000 0.000000 0.000000 43093.dat
1 0 -56.618610 -145.969300 -292.360600 0.000000 0.000000 -1.000000 0.000000 -1.000000 0.000000 -1.000000 0.000000 0.000000 2780.dat
1 0 -44.607660 -129.977400 -112.360500 0.000000 0.000000 -1.000000 0.000000 -1.000000 0.000000 -1.000000 0.000000 0.000000 2780.dat
1 0 -68.630000 -161.960700 -112.360500 0.000000 -0.600558 0.799581 0.000000 -0.799581 -0.600558 1.000000 0.000000 0.000000 43093.dat
1 0 -68.629780 -161.961000 -292.360600 0.000000 -0.799582 0.600558 0.000000 0.600557 0.799582 -1.000000 0.000000 0.000000 43093.dat
1 0 71.403540 -242.000000 -112.180500 0.000000 -0.600000 0.800000 0.000000 -0.800000 -0.600000 1.000000 0.000000 0.000000 43093.dat
1 0 71.403270 -242.000100 -292.359500 0.000000 -0.600000 0.800000 0.000000 0.800000 0.600000 -1.000000 0.000000 0.000000 43093.dat
1 0 83.299530 -225.948000 -112.360300 0.000000 -0.601823 -0.798630 0.000000 -0.798630 0.601823 -1.000000 0.000000 0.000000 2780.dat
1 0 83.403270 -226.000100 -292.359500 0.000000 0.000000 -1.000000 0.000000 -1.000000 0.000000 -1.000000 0.000000 0.000000 2780.dat
0 STEP
1 0 -152.596200 -34.000140 -402.360300 0.000000 0.000000 1.000000 -1.000000 0.000000 0.000000 0.000000 -1.000000 0.000000 6558.dat
1 0 -152.596200 -34.000140 -422.360300 0.000000 0.000000 1.000000 -1.000000 0.000000 0.000000 0.000000 -1.000000 0.000000 6558.dat
1 0 -152.596200 -34.000140 -362.360500 0.000000 0.000000 1.000005 -1.000000 0.000000 0.000000 0.000000 -1.000005 0.000000 6558.dat
1 0 -152.596200 -34.000130 -202.359800 1.000004 0.000000 0.000000 0.000000 1.000000 0.000000 0.000000 0.000000 1.000004 32278.dat
1 0 -152.596200 -34.000140 -242.360100 0.000000 0.000000 1.000004 -1.000000 0.000000 0.000000 0.000000 -1.000004 0.000000 6558.dat
1 0 -152.596400 -34.000090 -162.360600 0.000000 0.000000 1.000006 -1.000000 0.000000 0.000000 0.000000 -1.000005 0.000000 6558.dat
1 0 -152.596400 -34.000090 -42.360120 0.000000 0.000000 1.000004 -1.000000 0.000000 0.000000 0.000000 -1.000004 0.000000 6558.dat
1 0 -152.596300 -14.000080 -202.360500 1.000004 0.000000 0.000000 0.000000 1.000000 0.000000 0.000000 0.000000 1.000004 32316.dat
1 0 -152.596400 -14.000060 -62.361130 1.000000 0.000000 0.000000 0.000000 1.000000 0.000000 0.000000 0.000000 1.000000 40490.dat
1 0 -152.596400 -33.999960 17.638870 0.000000 0.000000 1.000000 0.999997 0.000000 0.000000 0.000000 0.999996 0.000000 6558.dat
1 0 -152.596400 -34.000080 -2.359820 0.000000 0.000000 1.000000 1.000002 0.000000 0.000000 0.000000 1.000002 0.000000 6558.dat
1 0 -152.596400 -54.000080 -82.360110 1.000004 0.000000 0.000000 0.000000 1.000000 0.000000 0.000000 0.000000 1.000004 32525.dat
1 0 -152.596200 -54.000140 -322.360400 1.000000 0.000000 0.000000 0.000000 1.000000 0.000000 0.000000 0.000000 1.000000 32525.dat
1 0 -152.596200 -14.000130 -342.360600 1.000000 0.000000 0.000000 0.000000 1.000000 0.000000 0.000000 0.000000 1.000000 40490.dat
0 STEP
1 0 -52.596680 -53.999790 -12.320760 -0.999997 0.000000 0.000000 0.000000 -0.999998 0.000000 0.000000 0.000000 0.999995 41897.dat
1 0 -152.596400 -34.000000 57.639340 0.000000 0.000000 -1.000000 0.000000 -0.999998 0.000000 -0.999998 0.000000 0.000000 32009.dat
1 0 167.403500 -14.000040 -22.360610 1.000000 0.000000 0.000000 0.000000 0.999998 0.000000 0.000000 0.000000 0.999998 32526.dat
1 0 167.403600 -34.000000 57.639460 0.000000 0.000000 1.000000 -0.999999 0.000000 0.000000 0.000000 -0.999998 0.000000 6558.dat
1 0 207.403400 -34.000000 57.639460 0.000000 0.000000 1.000000 -0.999999 0.000000 0.000000 0.000000 -0.999998 0.000000 6558.dat
1 0 167.403600 -33.999990 57.639460 0.000000 0.000000 -1.000000 0.000000 0.999999 0.000000 0.999998 0.000000 0.000000 32278.dat
1 0 147.403700 -33.999990 57.639460 0.000000 0.000000 1.000000 -0.999999 0.000000 0.000000 0.000000 -0.999998 0.000000 6558.dat
1 0 307.403400 -33.999990 57.639460 0.000000 0.000000 1.000000 -0.999999 0.000000 0.000000 0.000000 -0.999998 0.000000 6558.dat
1 0 247.403400 -34.000000 57.639460 0.000000 0.000000 1.000000 -0.999999 0.000000 0.000000 0.000000 -0.999998 0.000000 6558.dat
1 0 247.403600 -14.000030 57.639460 0.000000 0.000000 1.000000 0.000000 0.999998 0.000000 -0.999998 0.000000 0.000000 32526.dat
1 0 27.403710 -14.000020 57.639340 0.000000 0.000000 -1.000000 0.000000 0.999998 0.000000 0.999998 0.000000 0.000000 41239.dat
1 0 27.403500 -24.000000 57.639340 0.000000 0.000000 -1.000000 0.999999 0.000000 0.000000 0.000000 -0.999998 0.000000 2780.dat
1 0 -32.596320 -44.000020 57.639340 0.000000 0.000000 -1.000000 -1.000000 0.000000 0.000000 0.000000 1.000000 0.000000 43093.dat
1 0 -12.596380 -34.000000 57.639340 0.000000 0.000000 1.000000 0.999998 0.000000 0.000000 0.000000 0.999998 0.000000 6558.dat
1 0 167.403500 -34.000000 -22.360610 1.000000 0.000000 0.000000 0.000000 0.999998 0.000000 0.000000 0.000000 0.999998 55615.dat
1 0 327.403300 -33.999960 57.639160 0.000000 0.000000 1.000000 -0.999999 0.000000 0.000000 0.000000 -0.999998 0.000000 6558.dat
1 0 327.403600 -33.999980 17.639360 0.000000 0.000000 1.000000 -0.999999 0.000000 0.000000 0.000000 -0.999998 0.000000 6558.dat
1 0 327.403600 -33.999960 37.639450 1.000000 0.000000 0.000000 0.000000 0.999999 0.000000 0.000000 0.000000 0.999998 32523.dat
1 0 247.403400 -53.999940 57.639160 0.000000 0.000000 1.000000 0.000000 0.999998 0.000000 -0.999998 0.000000 0.000000 32526.dat
1 0 -52.596320 -54.000000 57.640750 0.000000 -1.000000 0.000000 1.000002 0.000000 0.000000 0.000000 0.000000 1.000002 32184.dat
1 0 107.403600 -53.999960 57.639340 0.000000 0.000000 -1.000000 0.000000 1.000000 0.000000 1.000000 0.000000 0.000000 41239.dat
1 0 87.403510 -53.999960 -42.360490 0.000000 0.000000 1.000000 0.999999 0.000000 0.000000 0.000000 0.999998 0.000000 32526.dat
1 0 167.403500 -53.999960 -32.360430 0.000000 0.000000 -1.000000 0.000000 -1.000000 0.000000 -1.000000 0.000000 0.000000 2780.dat
1 0 107.403500 -53.999960 -52.360490 0.000000 0.000000 -1.000000 0.000000 -0.999998 0.000000 -0.999998 0.000000 0.000000 43093.dat
1 0 87.403510 -53.999960 -52.360490 0.000000 0.000000 -1.000000 0.000000 -0.999998 0.000000 -0.999998 0.000000 0.000000 2780.dat
1 0 127.403500 -53.999960 -52.360490 0.000000 0.000000 -1.000000 0.000000 -0.999998 0.000000 -0.999998 0.000000 0.000000 2780.dat
1 0 -72.596320 -44.000020 57.639280 0.000000 0.000000 -1.000000 -1.000000 0.000000 0.000000 0.000000 1.000000 0.000000 43093.dat
1 0 -52.596260 -54.000480 -12.321000 -0.999997 0.000000 0.000000 0.000000 0.999998 0.000000 0.000000 0.000000 -0.999995 56908.dat
1 0 -52.596320 -54.000000 47.640760 0.000000 0.000000 1.000000 0.000000 1.000000 0.000000 -1.000000 0.000000 0.000000 43093.dat
1 0 -52.596320 -53.999800 -42.360800 0.000000 0.000000 0.999997 -0.999998 0.000000 0.000000 0.000000 -0.999995 0.000000 32523.dat
1 0 -52.596320 -53.999800 -42.320760 0.000000 0.000000 0.999997 0.000000 0.999998 0.000000 -0.999995 0.000000 0.000000 44294.dat
1 0 -52.596320 -54.002860 27.640760 1.000000 0.000000 0.000000 0.000000 1.000000 0.000000 0.000000 0.000000 1.000000 59443.dat
1 0 -32.596500 -53.999780 -52.360680 0.000000 0.000000 0.999997 0.000000 0.999998 0.000000 -0.999995 0.000000 0.000000 2780.dat
1 0 -72.596260 -53.999840 -52.360680 0.000000 0.000000 0.999997 0.000000 0.999998 0.000000 -0.999995 0.000000 0.000000 2780.dat
0 STEP
1 0 -52.596300 -54.000000 -389.070600 1.000000 0.000000 0.000000 0.000000 1.000000 0.000000 0.000000 0.000000 1.000000 41897.dat
1 0 -52.596280 -54.000020 -362.400500 0.000000 0.000000 -1.000000 0.000000 1.000000 0.000000 1.000000 0.000000 0.000000 44294.dat
1 0 167.403700 -34.000140 -382.360600 -1.000000 0.000000 0.000000 0.000000 1.000000 0.000000 0.000000 0.000000 -1.000000 55615.dat
1 0 167.403700 -14.000140 -382.360600 1.000000 0.000000 0.000000 0.000000 -1.000000 0.000000 0.000000 0.000000 -1.000000 32526.dat
1 0 167.403800 -34.000140 -462.360400 0.000000 0.000000 1.000000 -1.000000 0.000000 0.000000 0.000000 -1.000000 0.000000 6558.dat
1 0 207.403700 -34.000140 -462.360400 0.000000 0.000000 1.000000 -1.000000 0.000000 0.000000 0.000000 -1.000000 0.000000 6558.dat
1 0 167.403800 -34.000130 -462.360400 0.000000 0.000000 -1.000000 0.000000 1.000000 0.000000 1.000000 0.000000 0.000000 32278.dat
1 0 147.403900 -34.000130 -462.360400 0.000000 0.000000 1.000000 -1.000000 0.000000 0.000000 0.000000 -1.000000 0.000000 6558.dat
1 0 307.403700 -34.000130 -462.360400 0.000000 0.000000 1.000000 -1.000000 0.000000 0.000000 0.000000 -1.000000 0.000000 6558.dat
1 0 247.403700 -34.000140 -462.360400 0.000000 0.000000 1.000000 -1.000000 0.000000 0.000000 0.000000 -1.000000 0.000000 6558.dat
1 0 247.403700 -14.000130 -462.360400 0.000000 0.000000 1.000000 0.000000 -1.000000 0.000000 1.000000 0.000000 0.000000 32526.dat
1 0 27.403800 -14.000130 -462.360500 0.000000 0.000000 -1.000000 0.000000 1.000000 0.000000 1.000000 0.000000 0.000000 41239.dat
1 0 27.403800 -24.000130 -462.360500 0.000000 0.000000 -1.000000 1.000000 0.000000 0.000000 0.000000 -1.000000 0.000000 2780.dat
1 0 327.403600 -34.000130 -422.360400 0.000000 0.000000 1.000000 -1.000000 0.000000 0.000000 0.000000 -1.000000 0.000000 6558.dat
1 0 327.403600 -34.000140 -462.360400 0.000000 0.000000 1.000000 -1.000000 0.000000 0.000000 0.000000 -1.000000 0.000000 6558.dat
1 0 327.403600 -34.000120 -442.360400 1.000000 0.000000 0.000000 0.000000 1.000000 0.000000 0.000000 0.000000 1.000000 32523.dat
1 0 -152.596200 -34.000150 -462.360500 0.000000 0.000000 -1.000000 0.000000 1.000000 0.000000 1.000000 0.000000 0.000000 32009.dat
1 0 -12.596160 -34.000150 -462.360500 0.000000 0.000000 1.000000 -1.000000 0.000000 0.000000 0.000000 -1.000000 0.000000 6558.dat
1 0 -32.596160 -44.000140 -462.360500 0.000000 0.000000 -1.000000 -1.000000 0.000000 0.000000 0.000000 1.000000 0.000000 43093.dat
1 0 -72.596160 -44.000120 -462.360500 0.000000 0.000000 -1.000000 -1.000000 0.000000 0.000000 0.000000 1.000000 0.000000 43093.dat
1 0 247.403700 -54.000140 -462.360400 0.000000 0.000000 1.000000 0.000000 -1.000000 0.000000 1.000000 0.000000 0.000000 32526.dat
1 0 -52.596160 -54.000140 -462.360500 0.000000 -1.000000 0.000000 1.000000 0.000000 0.000000 0.000000 0.000000 1.000000 32184.dat
1 0 -52.596220 -54.002860 -432.400500 1.000000 0.000000 0.000000 0.000000 1.000000 0.000000 0.000000 0.000000 1.000000 59443.dat
1 0 -52.596220 -54.000000 -452.400500 0.000000 0.000000 -1.000000 0.000000 1.000000 0.000000 1.000000 0.000000 0.000000 43093.dat
1 0 -92.596160 -24.000150 -462.360500 0.000000 0.000000 -1.000000 1.000000 0.000000 0.000000 0.000000 -1.000000 0.000000 2780.dat
1 0 107.403800 -54.000160 -462.360500 0.000000 0.000000 -1.000000 0.000000 1.000000 0.000000 1.000000 0.000000 0.000000 41239.dat
1 0 -52.596300 -54.000700 -389.070600 1.000000 0.000000 0.000000 0.000000 1.000000 0.000000 0.000000 0.000000 1.000000 56908.dat
1 0 -72.596270 -54.000000 -352.360600 0.000000 0.000000 -1.000000 0.000000 1.000000 0.000000 1.000000 0.000000 0.000000 2780.dat
1 0 -52.596280 -54.000000 -362.360600 0.000000 0.000000 -1.000000 -1.000000 0.000000 0.000000 0.000000 1.000000 0.000000 32523.dat
1 0 -32.596270 -54.000020 -352.360600 0.000000 0.000000 -1.000000 0.000000 1.000000 0.000000 1.000000 0.000000 0.000000 2780.dat
1 0 87.403780 -54.000160 -362.360600 0.000000 0.000000 1.000000 1.000000 0.000000 0.000000 0.000000 1.000000 0.000000 32526.dat
1 0 107.403800 -54.000160 -352.360600 0.000000 0.000000 -1.000000 0.000000 1.000000 0.000000 1.000000 0.000000 0.000000 43093.dat
1 0 87.403780 -54.000140 -352.360600 0.000000 0.000000 -1.000000 0.000000 -1.000000 0.000000 -1.000000 0.000000 0.000000 2780.dat
1 0 127.403800 -54.000180 -352.360600 0.000000 0.000000 -1.000000 0.000000 -1.000000 0.000000 -1.000000 0.000000 0.000000 2780.dat
1 0 207.405900 5.999800 -202.359900 0.000000 -1.000009 0.000000 0.000000 0.000000 -1.000000 1.000009 0.000000 0.000000 92911.dat
1 0 187.405900 -34.000200 -202.359900 0.000000 1.000009 0.000000 -1.000000 0.000000 0.000000 0.000000 0.000000 1.000009 32316.dat
1 0 227.403500 -254.000000 -252.360300 0.000000 0.000000 -1.000000 0.000000 1.000000 0.000000 1.000000 0.000000 0.000000 2780.dat
1 0 227.403500 -284.000000 -182.360300 0.000000 0.000000 -1.000000 -1.000000 0.000000 0.000000 0.000000 1.000000 0.000000 2780.dat
1 0 227.403500 -284.000000 -222.360300 0.000000 0.000000 -1.000000 -1.000000 0.000000 0.000000 0.000000 1.000000 0.000000 2780.dat
1 0 187.403200 -194.000100 -292.359400 0.000000 0.000000 1.000000 0.000000 1.000000 0.000000 -1.000000 0.000000 0.000000 2780.dat
1 0 187.403500 -294.000000 -282.360400 0.000000 0.000000 1.000000 0.000000 1.000000 0.000000 -1.000000 0.000000 0.000000 6558.dat
1 0 167.403600 -374.000000 -252.360400 0.000000 0.000000 1.000000 0.000000 1.000000 0.000000 -1.000000 0.000000 0.000000 2780.dat
1 0 187.403200 -254.000100 -302.359400 1.000000 0.000000 0.000000 0.000000 0.000000 1.000000 0.000000 -1.000000 0.000000 32524.dat
1 0 147.403700 -304.000000 -222.360400 0.000000 1.000000 0.000000 -1.000000 0.000000 0.000000 0.000000 0.000000 1.000000 2780.dat
1 0 147.403700 -304.000100 -142.360300 0.000000 1.000000 0.000000 -1.000000 0.000000 0.000000 0.000000 0.000000 1.000000 2780.dat
1 0 227.403500 -304.000100 -262.360800 0.000000 1.000000 0.000000 -1.000000 0.000000 0.000000 0.000000 0.000000 1.000000 2780.dat
1 0 147.403700 -324.000000 -182.360400 0.000000 1.000000 0.000000 -1.000000 0.000000 0.000000 0.000000 0.000000 1.000000 2780.dat
1 0 227.403500 -324.000000 -142.360300 0.000000 1.000000 0.000000 -1.000000 0.000000 0.000000 0.000000 0.000000 1.000000 2780.dat
1 0 147.403600 -324.000000 -262.360800 0.000000 1.000000 0.000000 -1.000000 0.000000 0.000000 0.000000 0.000000 1.000000 2780.dat
1 0 227.403500 -324.000100 -222.360400 0.000000 1.000000 0.000000 -1.000000 0.000000 0.000000 0.000000 0.000000 1.000000 2780.dat
1 0 147.403700 -344.000000 -142.360300 0.000000 1.000000 0.000000 -1.000000 0.000000 0.000000 0.000000 0.000000 1.000000 2780.dat
1 0 147.403700 -344.000000 -222.360400 0.000000 1.000000 0.000000 -1.000000 0.000000 0.000000 0.000000 0.000000 1.000000 2780.dat
1 0 227.403600 -344.000000 -262.360800 0.000000 1.000000 0.000000 -1.000000 0.000000 0.000000 0.000000 0.000000 1.000000 2780.dat
1 0 227.403600 -344.000000 -182.360400 0.000000 1.000000 0.000000 -1.000000 0.000000 0.000000 0.000000 0.000000 1.000000 2780.dat
1 0 227.403700 -364.000000 -142.360300 0.000000 1.000000 0.000000 -1.000000 0.000000 0.000000 0.000000 0.000000 1.000000 2780.dat
1 0 227.403700 -364.000000 -222.360400 0.000000 1.000000 0.000000 -1.000000 0.000000 0.000000 0.000000 0.000000 1.000000 2780.dat
1 0 147.403700 -364.000100 -262.360800 0.000000 1.000000 0.000000 -1.000000 0.000000 0.000000 0.000000 0.000000 1.000000 2780.dat
1 0 147.403700 -364.000000 -182.360400 0.000000 1.000000 0.000000 -1.000000 0.000000 0.000000 0.000000 0.000000 1.000000 2780.dat
1 0 207.403600 -374.000000 -252.360400 0.000000 0.000000 1.000000 0.000000 1.000000 0.000000 -1.000000 0.000000 0.000000 2780.dat
1 0 187.403700 -374.000000 -122.360400 -0.000001 0.000000 -1.000000 0.000000 1.000000 0.000000 1.000000 0.000000 -0.000001 95650.dat
1 0 167.403600 -374.000000 -132.360400 0.000000 0.000000 1.000000 0.000000 1.000000 0.000000 -1.000000 0.000000 0.000000 2780.dat
1 0 207.403700 -374.000000 -132.360400 0.000000 0.000000 1.000000 0.000000 1.000000 0.000000 -1.000000 0.000000 0.000000 2780.dat
1 0 187.404400 -194.001100 -112.361700 -0.000001 0.000000 -1.000006 0.000000 1.000004 0.000000 1.000012 0.000000 -0.000001 2780.dat
1 0 207.403500 -294.000000 -122.360400 0.000000 0.000000 -1.000000 0.000000 1.000000 0.000000 1.000000 0.000000 0.000000 6558.dat
1 0 187.404400 -254.001200 -102.361700 -1.000008 0.000000 0.000000 0.000000 0.000000 1.000005 0.000000 1.000014 0.000000 32524.dat
1 0 187.404400 -314.001500 -122.361900 0.000000 0.000000 -1.000000 0.000000 1.000000 0.000000 1.000000 0.000000 0.000000 6558.dat
1 0 187.403200 -314.000100 -282.359400 0.000000 0.000000 1.000000 0.000000 1.000000 0.000000 -1.000000 0.000000 0.000000 6558.dat
1 0 187.404400 -294.001400 -122.361900 0.000000 0.000000 -1.000000 0.000000 1.000000 0.000000 1.000000 0.000000 0.000000 6558.dat
1 0 207.404500 -314.001500 -122.361500 0.000000 0.000000 -1.000002 0.000000 1.000000 0.000000 1.000002 0.000000 0.000000 6558.dat
1 0 207.404000 -293.999900 -282.361300 0.000000 0.000000 1.000001 0.000000 1.000001 0.000000 -1.000000 0.000000 0.000000 6558.dat
1 0 207.403600 -254.000000 -302.360400 1.000001 0.000000 0.000000 0.000000 0.000000 1.000001 0.000000 -1.000000 0.000000 32524.dat
1 0 207.403500 -314.000100 -282.360400 0.000000 0.000000 1.000001 0.000000 1.000001 0.000000 -1.000000 0.000000 0.000000 6558.dat
1 1 187.403600 -154.000200 -82.360520 1.000000 0.000000 0.000000 0.000000 1.000000 0.000000 0.000000 0.000000 1.000000 6558.dat
1 0 207.404500 -254.001500 -102.361500 -1.000000 0.000000 0.000000 0.000000 0.000000 1.000000 0.000000 1.000000 0.000000 32524.dat
1 4 207.403600 -194.000200 -93.310520 0.000000 0.000000 1.000000 0.000000 1.000000 0.000000 -1.000000 0.000000 0.000000 32062.dat
1 1 187.403600 -154.000200 -322.360500 -1.000000 0.000000 0.000000 0.000000 1.000000 0.000000 0.000000 0.000000 -1.000000 6558.dat
1 4 207.403600 -194.000200 -312.110500 0.000000 0.000000 1.000000 0.000000 1.000000 0.000000 -1.000000 0.000000 0.000000 32062.dat
1 19 -152.596400 -64.000080 -182.360500 0.000000 0.000000 -1.000000 -1.000000 0.000000 0.000000 0.000000 1.000000 0.000000 3749.dat
1 19 -152.596400 -64.000080 -82.360000 0.000000 0.000000 -1.000000 -1.000000 0.000000 0.000000 0.000000 1.000000 0.000000 3749.dat
1 0 -152.596400 -94.000080 -82.360010 1.000001 0.000000 0.000000 0.000000 0.000000 -1.000001 0.000000 1.000000 0.000000 32014.dat
1 0 -152.596300 -93.999870 -131.741500 0.000000 0.000000 -1.000001 0.000000 1.000001 0.000000 1.000000 0.000000 0.000000 3705.dat
1 0 -152.596300 -93.999870 -182.281600 -1.000001 0.000000 0.000000 0.000000 0.000000 -1.000001 0.000000 -1.000000 0.000000 32014.dat
1 0 -152.596300 -93.999870 -132.901700 0.000000 1.000004 0.000000 0.000000 0.000000 -1.000000 -1.000004 0.000000 0.000000 95650.dat
0 STEP
0 NOFILE
