0 FILE Robot_1.ldr.io
0 Untitled Model
0 Name: Robot_1.ldr
0 Author: 
0 CustomBrick
0 FlexibleBrickControlPointUnitLength -1
0 FlexibleBrickLockedControlPoint 
1 0 83.800200 -154.000000 -349.999800 0.000000 1.000000 0.000000 0.000000 0.000000 -1.000000 -1.000000 0.000000 0.000000 60484.dat
1 0 163.800200 -154.000000 -349.999800 0.000000 1.000000 0.000000 0.000000 0.000000 -1.000000 -1.000000 0.000000 0.000000 60484.dat
1 0 122.500200 -154.000000 -349.999900 1.000000 0.000000 0.000000 0.000000 1.000000 0.000000 0.000000 0.000000 1.000000 60485.dat
1 0 204.000200 -154.000000 -349.999900 0.000000 0.000000 1.000000 0.000000 1.000000 0.000000 -1.000000 0.000000 0.000000 32498.dat
1 0 42.500160 -154.000000 -349.999900 0.000000 0.000000 1.000000 0.000000 1.000000 0.000000 -1.000000 0.000000 0.000000 32498.dat
1 0 151.560200 -154.000000 -349.999900 0.000000 0.000000 -1.000000 0.000000 1.000000 0.000000 1.000000 0.000000 0.000000 6589.dat
1 0 184.540200 -134.000000 -429.999900 0.000000 1.000000 0.000000 -1.000000 0.000000 0.000000 0.000000 0.000000 1.000000 32526.dat
1 0 -25.470880 -134.702400 -406.268400 0.017278 0.999851 0.000000 -0.184781 0.003193 0.982775 0.982628 -0.016980 0.184809 32271.dat
1 0 272.697800 -134.191900 -410.318200 0.017015 0.999855 0.000232 -0.177521 0.002793 0.984113 0.983970 -0.016785 0.177543 32271.dat
1 0 124.469100 -134.332200 -408.823200 0.017276 0.000000 -0.999851 -0.184787 0.982773 -0.003193 0.982627 0.184815 0.016979 59443.dat
1 0 64.710170 -134.000000 -429.999900 0.000000 1.000000 0.000000 -1.000000 0.000000 0.000000 0.000000 0.000000 1.000000 32526.dat
1 0 291.195200 -134.138400 -410.628400 -0.017015 -0.000127 0.999855 0.177520 0.984112 0.003146 -0.983970 0.177548 -0.016722 32123a.dat
1 0 -43.376020 -134.759100 -405.964500 -0.017277 0.000000 0.999851 0.184787 0.982773 0.003193 -0.982627 0.184814 -0.016979 32123a.dat
1 0 213.926400 -134.356000 -409.331600 -0.999855 0.000232 -0.017015 -0.002793 0.984113 0.177521 0.016785 0.177543 -0.983970 60485.dat
1 0 34.482580 -134.592100 -407.290000 -0.999851 0.000358 -0.017276 -0.002841 0.982778 0.184766 0.017045 0.184788 -0.982631 60485.dat
1 0 290.551800 1.883310 -353.551200 -0.013831 -0.010270 0.999851 -0.441212 0.897394 0.003115 -0.897287 -0.441106 -0.016943 32123a.dat
1 0 213.284300 1.665030 -352.254300 -0.999854 -0.009912 -0.013831 -0.002793 0.897397 -0.441215 0.016785 -0.441112 -0.897294 60485.dat
1 0 -44.115800 0.881260 -347.917100 -0.013904 -0.010253 0.999852 -0.434558 0.900638 0.003193 -0.900532 -0.434448 -0.016978 32123a.dat
1 0 33.743570 1.062380 -349.193600 -0.999854 -0.009895 -0.013903 -0.002870 0.900630 -0.434577 0.016822 -0.434474 -0.900527 60485.dat
1 0 123.440500 1.321160 -350.703400 0.013903 -0.010253 -0.999851 0.434577 0.900629 -0.003193 0.900527 -0.434468 0.016978 59443.dat
1 0 27.533400 -134.876500 -406.202500 0.017015 0.000232 -0.999855 -0.177521 0.984113 -0.002793 0.983970 0.177543 0.016785 32270.dat
1 0 205.927600 -134.378300 -409.197300 0.017015 0.000232 -0.999855 -0.177521 0.984113 -0.002793 0.983970 0.177542 0.016786 32270.dat
1 0 123.800200 -214.000000 -309.999800 1.000000 0.000000 0.000000 0.000000 0.000000 1.000000 0.000000 -1.000000 0.000000 64179.dat
1 0 123.800200 -184.000000 -349.999800 1.000000 0.000000 0.000000 0.000000 0.000000 -1.000000 0.000000 1.000000 0.000000 99455.dat
1 0 83.800200 -254.000000 -309.999800 1.000000 0.000000 0.000000 0.000000 1.000000 0.000000 0.000000 0.000000 1.000000 32054.dat
1 0 43.800200 -254.000000 -309.999800 1.000000 0.000000 0.000000 0.000000 1.000000 0.000000 0.000000 0.000000 1.000000 4519.dat
1 0 21.950200 -254.000000 -309.999800 1.000000 0.000000 0.000000 0.000000 1.000000 0.000000 0.000000 0.000000 1.000000 95654.dat
1 0 93.800200 -214.000000 -319.999800 1.000000 0.000000 0.000000 0.000000 1.000000 0.000000 0.000000 0.000000 1.000000 95648.dat
1 0 153.800200 -214.000000 -309.999800 1.000000 0.000000 0.000000 0.000000 1.000000 0.000000 0.000000 0.000000 1.000000 99380.dat
1 0 123.800200 -254.000000 -319.999800 1.000000 0.000000 0.000000 0.000000 1.000000 0.000000 0.000000 0.000000 1.000000 95650.dat
1 0 123.800200 -182.530000 -349.999800 0.000000 0.000000 1.000000 -1.000000 0.000000 0.000000 0.000000 -1.000000 0.000000 32062.dat
1 0 123.800200 -172.530000 -349.999800 1.000000 0.000000 0.000000 0.000000 0.000000 -1.000000 0.000000 1.000000 0.000000 32269.dat
1 0 153.800200 -194.000000 -369.999800 -1.000000 0.000000 0.000000 0.000000 -1.000000 0.000000 0.000000 0.000000 1.000000 2780.dat
1 0 153.800200 -194.000000 -329.999800 -1.000000 0.000000 0.000000 0.000000 -1.000000 0.000000 0.000000 0.000000 1.000000 2780.dat
1 0 93.800200 -194.000000 -369.999800 -1.000000 0.000000 0.000000 0.000000 -1.000000 0.000000 0.000000 0.000000 1.000000 2780.dat
1 0 93.800200 -194.000000 -329.999800 -1.000000 0.000000 0.000000 0.000000 -1.000000 0.000000 0.000000 0.000000 1.000000 2780.dat
1 0 -16.200000 -74.000220 -239.999900 0.000000 0.000000 1.000000 0.000000 -1.000000 0.000000 1.000000 0.000000 0.000000 2780.dat
1 0 23.799990 -74.000200 -239.999900 0.000000 0.000000 1.000000 0.000000 -1.000000 0.000000 1.000000 0.000000 0.000000 2780.dat
1 0 223.800200 -73.999960 -239.999800 0.000000 0.000000 1.000000 0.000000 -1.000000 0.000000 1.000000 0.000000 0.000000 2780.dat
1 0 263.800100 -73.999960 -239.999800 0.000000 0.000000 1.000000 0.000000 -1.000000 0.000000 1.000000 0.000000 0.000000 2780.dat
1 0 123.800200 -73.999960 -249.999800 0.000000 0.000000 1.000000 -1.000000 0.000000 0.000000 0.000000 -1.000000 0.000000 32278.dat
1 0 163.799800 -74.000060 -269.999000 0.000000 -1.000000 0.000000 0.000000 0.000000 -1.000000 1.000000 0.000000 0.000000 6558.dat
1 0 83.800200 -73.999960 -269.999800 0.000000 -1.000000 0.000000 0.000000 0.000000 -1.000000 1.000000 0.000000 0.000000 6558.dat
1 0 83.800200 -153.999900 -289.999800 -1.000000 0.000000 0.000000 0.000000 0.000000 -1.000000 0.000000 -1.000000 0.000000 41239.dat
1 0 163.800000 -154.000200 -289.999900 -1.000000 0.000000 0.000000 0.000000 0.000000 -1.000000 0.000000 -1.000000 0.000000 41239.dat
1 0 243.800200 -153.999800 -249.999800 0.000000 0.000000 -1.000000 0.000000 -1.000000 0.000000 -1.000000 0.000000 0.000000 6558.dat
1 0 3.800020 -154.000200 -249.999800 0.000000 0.000000 -1.000000 0.000000 -1.000000 0.000000 -1.000000 0.000000 0.000000 6558.dat
1 0 123.800000 -154.000200 -269.999900 0.000000 0.000000 -1.000000 -1.000000 0.000000 0.000000 0.000000 1.000000 0.000000 41239.dat
1 0 3.800020 -174.000200 -249.999800 1.000000 0.000000 0.000000 0.000000 1.000000 0.000000 0.000000 0.000000 1.000000 42003.dat
1 0 243.800200 -173.999800 -249.999800 1.000000 0.000000 0.000000 0.000000 1.000000 0.000000 0.000000 0.000000 1.000000 42003.dat
1 0 83.800200 -153.999900 -289.999800 0.000000 -1.000000 0.000000 0.000000 0.000000 -1.000000 1.000000 0.000000 0.000000 6558.dat
1 0 163.800000 -154.000200 -289.999900 0.000000 -1.000000 0.000000 0.000000 0.000000 -1.000000 1.000000 0.000000 0.000000 6558.dat
1 0 203.800200 -194.000000 -249.999800 0.000000 -1.000000 0.000000 -1.000000 0.000000 0.000000 0.000000 0.000000 -1.000000 32140.dat
1 0 43.801090 -194.000100 -249.999500 0.000000 -1.000004 0.000000 -1.000004 0.000000 0.000000 0.000000 0.000000 -1.000000 32140.dat
1 0 103.800600 -34.000200 -280.002200 0.000000 0.000000 1.000009 0.000000 -1.000000 0.000000 1.000009 0.000000 0.000000 2780.dat
1 0 163.800000 -34.000200 -279.999900 0.000000 0.000000 1.000000 0.000000 -1.000000 0.000000 1.000000 0.000000 0.000000 2780.dat
1 0 123.800600 5.999800 -290.002200 1.000009 0.000000 0.000000 0.000000 1.000000 0.000000 0.000000 0.000000 1.000009 99948.dat
1 0 224.990200 -193.999800 -249.999800 1.000000 0.000000 0.000000 0.000000 1.000000 0.000000 0.000000 0.000000 1.000000 4519.dat
1 0 22.081050 -194.000100 -249.999500 1.000000 0.000000 0.000000 0.000000 1.000000 0.000000 0.000000 0.000000 1.000000 4519.dat
1 0 83.800200 -214.000000 -309.999800 1.000000 0.000000 0.000000 0.000000 1.000000 0.000000 0.000000 0.000000 1.000000 32054.dat
1 0 193.800200 -214.000000 -309.999800 -1.000000 0.000000 0.000000 0.000000 1.000000 0.000000 0.000000 0.000000 -1.000000 43093.dat
1 0 163.800200 -254.000000 -309.999800 -1.000000 0.000000 0.000000 0.000000 1.000000 0.000000 0.000000 0.000000 -1.000000 32054.dat
1 0 163.800200 -214.000000 -309.999800 -1.000000 0.000000 0.000000 0.000000 1.000000 0.000000 0.000000 0.000000 -1.000000 32054.dat
1 0 53.800200 -214.000000 -309.999800 1.000000 0.000000 0.000000 0.000000 1.000000 0.000000 0.000000 0.000000 1.000000 43093.dat
1 0 163.800200 -274.000000 -299.999800 0.000000 0.601823 0.798630 0.000000 -0.798630 0.601823 1.000000 0.000000 0.000000 2780.dat
1 0 83.800200 -274.000000 -299.999800 0.000000 0.601823 0.798630 0.000000 -0.798630 0.601823 1.000000 0.000000 0.000000 2780.dat
1 0 143.801100 -34.000200 -280.002200 0.000000 0.000000 1.000009 0.000000 -1.000000 0.000000 1.000009 0.000000 0.000000 2780.dat
1 0 83.800510 -34.000190 -280.002200 0.000000 0.000000 1.000009 0.000000 -1.000000 0.000000 1.000009 0.000000 0.000000 2780.dat
1 0 3.799990 -54.000000 -29.999960 1.000000 0.000000 0.000000 0.000000 1.000000 0.000001 0.000000 -0.000001 1.000000 95658.dat
1 0 243.800100 -53.999790 -29.999840 0.999998 0.000000 0.000000 0.000000 0.999998 0.000001 0.000000 -0.000001 1.000000 95658.dat
1 0 223.800100 -114.027600 -109.999800 0.000000 1.000000 0.000000 -1.000000 0.000000 0.000697 0.000697 0.000000 1.000000 32348.dat
1 0 23.800010 -114.027900 -109.999900 0.000000 1.000000 -0.000001 -1.000000 0.000000 0.000697 0.000697 0.000001 1.000000 32348.dat
1 0 123.800000 -209.893900 -78.016510 1.000000 0.000000 0.000000 0.000000 0.800627 0.599163 0.000000 -0.599163 0.800627 95646.dat
1 0 223.800200 -194.000000 -249.999800 0.000000 1.000000 0.000000 -1.000000 0.000000 0.000000 0.000000 0.000000 1.000000 32348.dat
1 0 23.801040 -194.000100 -249.999500 0.000000 1.000000 0.000000 -1.000000 0.000000 0.000000 0.000000 0.000000 1.000000 32348.dat
1 0 13.799990 -114.000000 -69.999900 -1.000000 0.000000 0.000000 0.000000 -1.000000 0.000000 0.000000 0.000000 1.000000 2780.dat
1 0 233.800100 -113.999700 -69.999790 -1.000000 0.000000 0.000000 0.000000 -1.000000 0.000000 0.000000 0.000000 1.000000 2780.dat
1 0 13.799990 -114.000100 -109.999900 1.000000 0.000000 0.000000 0.000000 -0.998665 0.051659 0.000000 -0.051659 -0.998665 43093.dat
1 0 234.480100 -113.999800 -109.993700 -1.000000 0.000000 0.000000 0.000000 -0.998665 -0.051660 0.000000 -0.051660 0.998665 43093.dat
1 0 33.799950 -145.969300 -25.977620 -1.000000 0.000000 0.000000 0.000000 -1.000000 0.000000 0.000000 0.000000 1.000000 2780.dat
1 0 213.800100 -129.977400 -37.988620 -1.000000 0.000000 0.000000 0.000000 -1.000000 0.000000 0.000000 0.000000 1.000000 2780.dat
1 0 213.800100 -161.960700 -13.966300 1.000000 0.000000 0.000000 0.000000 -0.799581 -0.600558 0.000000 0.600558 -0.799581 43093.dat
1 0 33.799940 -161.961000 -13.966460 -1.000000 0.000000 0.000000 0.000000 0.600557 0.799582 0.000000 0.799582 -0.600558 43093.dat
1 0 213.980100 -242.000000 -153.999800 1.000000 0.000000 0.000000 0.000000 -0.800000 -0.600000 0.000000 0.600000 -0.800000 43093.dat
1 0 33.801040 -242.000100 -153.999500 -1.000000 0.000000 0.000000 0.000000 0.800000 0.600000 0.000000 0.600000 -0.800000 43093.dat
1 0 213.800200 -225.948000 -165.895800 -1.000000 0.000000 0.000000 0.000000 -0.798630 0.601823 0.000000 0.601823 0.798630 2780.dat
1 0 33.801040 -226.000100 -165.999500 -1.000000 0.000000 0.000000 0.000000 -1.000000 0.000000 0.000000 0.000000 1.000000 2780.dat
1 0 -76.199780 -34.000140 69.999980 0.000000 -1.000000 0.000000 -1.000000 0.000000 0.000000 0.000000 0.000000 -1.000000 6558.dat
1 0 -96.199760 -34.000140 69.999960 0.000000 -1.000000 0.000000 -1.000000 0.000000 0.000000 0.000000 0.000000 -1.000000 6558.dat
1 0 -36.199930 -34.000140 70.000000 0.000000 -1.000005 0.000000 -1.000000 0.000000 0.000000 0.000000 0.000000 -1.000005 6558.dat
1 0 123.800800 -34.000130 69.999960 0.000000 0.000000 1.000004 0.000000 1.000000 0.000000 -1.000004 0.000000 0.000000 32278.dat
1 0 83.800480 -34.000140 70.000060 0.000000 -1.000004 0.000000 -1.000000 0.000000 0.000000 0.000000 0.000000 -1.000004 6558.dat
1 0 163.800000 -34.000090 70.000110 0.000000 -1.000005 0.000000 -1.000000 0.000000 0.000000 0.000000 0.000000 -1.000006 6558.dat
1 0 283.800500 -34.000090 70.000170 0.000000 -1.000004 0.000000 -1.000000 0.000000 0.000000 0.000000 0.000000 -1.000004 6558.dat
1 0 123.800100 -14.000080 70.000140 0.000000 0.000000 1.000004 0.000000 1.000000 0.000000 -1.000004 0.000000 0.000000 32316.dat
1 0 263.799500 -14.000060 70.000200 0.000000 0.000000 1.000000 0.000000 1.000000 0.000000 -1.000000 0.000000 0.000000 40490.dat
1 0 343.799500 -33.999960 70.000180 0.000000 0.999996 0.000000 0.999997 0.000000 0.000000 0.000000 0.000000 -1.000000 6558.dat
1 0 323.800800 -34.000080 70.000180 0.000000 1.000002 0.000000 1.000002 0.000000 0.000000 0.000000 0.000000 -1.000000 6558.dat
1 0 243.800500 -54.000080 70.000160 0.000000 0.000000 1.000004 0.000000 1.000000 0.000000 -1.000004 0.000000 0.000000 32525.dat
1 0 3.800210 -54.000140 70.000020 0.000000 0.000000 1.000000 0.000000 1.000000 0.000000 -1.000000 0.000000 0.000000 32525.dat
1 0 -16.199930 -14.000130 70.000000 0.000000 0.000000 1.000000 0.000000 1.000000 0.000000 -1.000000 0.000000 0.000000 40490.dat
1 0 313.839800 -53.999790 -29.999580 0.000000 0.000000 0.999995 0.000000 -0.999998 0.000000 0.999997 0.000000 0.000000 41897.dat
1 0 383.800000 -34.000000 70.000200 -0.999998 0.000000 0.000000 0.000000 -0.999998 0.000000 0.000000 0.000000 1.000000 32009.dat
1 0 303.800000 -14.000040 -249.999800 0.000000 0.000000 0.999998 0.000000 0.999998 0.000000 -1.000000 0.000000 0.000000 32526.dat
1 0 383.800000 -34.000000 -249.999900 0.000000 -0.999998 0.000000 -0.999999 0.000000 0.000000 0.000000 0.000000 -1.000000 6558.dat
1 0 383.800000 -34.000000 -289.999800 0.000000 -0.999998 0.000000 -0.999999 0.000000 0.000000 0.000000 0.000000 -1.000000 6558.dat
1 0 383.800000 -33.999990 -249.999900 0.999998 0.000000 0.000000 0.000000 0.999999 0.000000 0.000000 0.000000 1.000000 32278.dat
1 0 383.800000 -33.999990 -230.000000 0.000000 -0.999998 0.000000 -0.999999 0.000000 0.000000 0.000000 0.000000 -1.000000 6558.dat
1 0 383.800000 -33.999990 -389.999800 0.000000 -0.999998 0.000000 -0.999999 0.000000 0.000000 0.000000 0.000000 -1.000000 6558.dat
1 0 383.800000 -34.000000 -329.999800 0.000000 -0.999998 0.000000 -0.999999 0.000000 0.000000 0.000000 0.000000 -1.000000 6558.dat
1 0 383.800000 -14.000030 -329.999900 -0.999998 0.000000 0.000000 0.000000 0.999998 0.000000 0.000000 0.000000 -1.000000 32526.dat
1 0 383.800000 -14.000020 -110.000000 0.999998 0.000000 0.000000 0.000000 0.999998 0.000000 0.000000 0.000000 1.000000 41239.dat
1 0 383.800000 -24.000000 -109.999800 0.000000 -0.999998 0.000000 0.999999 0.000000 0.000000 0.000000 0.000000 1.000000 2780.dat
1 0 383.800000 -44.000020 -49.999960 0.000000 1.000000 0.000000 -1.000000 0.000000 0.000000 0.000000 0.000000 1.000000 43093.dat
1 0 383.800000 -34.000000 -69.999900 0.000000 0.999998 0.000000 0.999998 0.000000 0.000000 0.000000 0.000000 -1.000000 6558.dat
1 0 303.800000 -34.000000 -249.999800 0.000000 0.000000 0.999998 0.000000 0.999998 0.000000 -1.000000 0.000000 0.000000 55615.dat
1 0 383.799700 -33.999960 -409.999700 0.000000 -0.999998 0.000000 -0.999999 0.000000 0.000000 0.000000 0.000000 -1.000000 6558.dat
1 0 343.799900 -33.999980 -409.999900 0.000000 -0.999998 0.000000 -0.999999 0.000000 0.000000 0.000000 0.000000 -1.000000 6558.dat
1 0 363.800000 -33.999960 -409.999900 0.000000 0.000000 0.999998 0.000000 0.999999 0.000000 -1.000000 0.000000 0.000000 32523.dat
1 0 383.799700 -53.999940 -329.999700 -0.999998 0.000000 0.000000 0.000000 0.999998 0.000000 0.000000 0.000000 -1.000000 32526.dat
1 0 383.801400 -54.000000 -29.999970 0.000000 0.000000 1.000002 1.000002 0.000000 0.000000 0.000000 1.000000 0.000000 32184.dat
1 0 383.800000 -53.999960 -189.999900 1.000000 0.000000 0.000000 0.000000 1.000000 0.000000 0.000000 0.000000 1.000000 41239.dat
1 0 283.800100 -53.999960 -169.999800 0.000000 0.999998 0.000000 0.999999 0.000000 0.000000 0.000000 0.000000 -1.000000 32526.dat
1 0 293.800100 -53.999960 -249.999800 -1.000000 0.000000 0.000000 0.000000 -1.000000 0.000000 0.000000 0.000000 1.000000 2780.dat
1 0 273.800100 -53.999960 -189.999800 -0.999998 0.000000 0.000000 0.000000 -0.999998 0.000000 0.000000 0.000000 1.000000 43093.dat
1 0 273.800100 -53.999960 -169.999800 -0.999998 0.000000 0.000000 0.000000 -0.999998 0.000000 0.000000 0.000000 1.000000 2780.dat
1 0 273.800100 -53.999960 -209.999800 -0.999998 0.000000 0.000000 0.000000 -0.999998 0.000000 0.000000 0.000000 1.000000 2780.dat
1 0 383.799900 -44.000020 -9.999990 0.000000 1.000000 0.000000 -1.000000 0.000000 0.000000 0.000000 0.000000 1.000000 43093.dat
1 0 313.839600 -54.000480 -30.000010 0.000000 0.000000 -0.999995 0.000000 0.999998 0.000000 0.999997 0.000000 0.000000 56908.dat
1 0 373.801400 -54.000000 -29.999970 -1.000000 0.000000 0.000000 0.000000 1.000000 0.000000 0.000000 0.000000 -1.000000 43093.dat
1 0 283.799800 -53.999800 -29.999950 0.000000 -0.999995 0.000000 -0.999998 0.000000 0.000000 0.000000 0.000000 -0.999997 32523.dat
1 0 283.839800 -53.999800 -29.999980 -0.999995 0.000000 0.000000 0.000000 0.999998 0.000000 0.000000 0.000000 -0.999997 44294.dat
1 0 353.801400 -54.002860 -29.999980 0.000000 0.000000 1.000000 0.000000 1.000000 0.000000 -1.000000 0.000000 0.000000 59443.dat
1 0 273.799900 -53.999780 -49.999780 -0.999995 0.000000 0.000000 0.000000 0.999998 0.000000 0.000000 0.000000 -0.999997 2780.dat
1 0 273.799900 -53.999840 -10.000020 -0.999995 0.000000 0.000000 0.000000 0.999998 0.000000 0.000000 0.000000 -0.999997 2780.dat
1 0 -62.910020 -54.000000 -29.999930 0.000000 0.000000 1.000000 0.000000 1.000000 0.000000 -1.000000 0.000000 0.000000 41897.dat
1 0 -36.240010 -54.000020 -29.999940 1.000000 0.000000 0.000000 0.000000 1.000000 0.000000 0.000000 0.000000 1.000000 44294.dat
1 0 -56.200020 -34.000140 -250.000000 0.000000 0.000000 -1.000000 0.000000 1.000000 0.000000 1.000000 0.000000 0.000000 55615.dat
1 0 -56.200020 -14.000140 -250.000000 0.000000 0.000000 -1.000000 0.000000 -1.000000 0.000000 -1.000000 0.000000 0.000000 32526.dat
1 0 -136.200000 -34.000140 -250.000000 0.000000 -1.000000 0.000000 -1.000000 0.000000 0.000000 0.000000 0.000000 -1.000000 6558.dat
1 0 -136.200000 -34.000140 -290.000000 0.000000 -1.000000 0.000000 -1.000000 0.000000 0.000000 0.000000 0.000000 -1.000000 6558.dat
1 0 -136.200000 -34.000130 -250.000000 1.000000 0.000000 0.000000 0.000000 1.000000 0.000000 0.000000 0.000000 1.000000 32278.dat
1 0 -136.200000 -34.000130 -230.000100 0.000000 -1.000000 0.000000 -1.000000 0.000000 0.000000 0.000000 0.000000 -1.000000 6558.dat
1 0 -136.200000 -34.000130 -390.000000 0.000000 -1.000000 0.000000 -1.000000 0.000000 0.000000 0.000000 0.000000 -1.000000 6558.dat
1 0 -136.200000 -34.000140 -330.000000 0.000000 -1.000000 0.000000 -1.000000 0.000000 0.000000 0.000000 0.000000 -1.000000 6558.dat
1 0 -136.200000 -14.000130 -330.000000 1.000000 0.000000 0.000000 0.000000 -1.000000 0.000000 0.000000 0.000000 -1.000000 32526.dat
1 0 -136.200000 -14.000130 -110.000000 1.000000 0.000000 0.000000 0.000000 1.000000 0.000000 0.000000 0.000000 1.000000 41239.dat
1 0 -136.200000 -24.000130 -110.000000 0.000000 -1.000000 0.000000 1.000000 0.000000 0.000000 0.000000 0.000000 1.000000 2780.dat
1 0 -96.200000 -34.000130 -409.999900 0.000000 -1.000000 0.000000 -1.000000 0.000000 0.000000 0.000000 0.000000 -1.000000 6558.dat
1 0 -136.200000 -34.000140 -409.999900 0.000000 -1.000000 0.000000 -1.000000 0.000000 0.000000 0.000000 0.000000 -1.000000 6558.dat
1 0 -116.200000 -34.000120 -409.999900 0.000000 0.000000 1.000000 0.000000 1.000000 0.000000 -1.000000 0.000000 0.000000 32523.dat
1 0 -136.200000 -34.000150 69.999970 1.000000 0.000000 0.000000 0.000000 1.000000 0.000000 0.000000 0.000000 1.000000 32009.dat
1 0 -136.200000 -34.000150 -70.000030 0.000000 -1.000000 0.000000 -1.000000 0.000000 0.000000 0.000000 0.000000 -1.000000 6558.dat
1 0 -136.200000 -44.000140 -50.000000 0.000000 1.000000 0.000000 -1.000000 0.000000 0.000000 0.000000 0.000000 1.000000 43093.dat
1 0 -136.200000 -44.000120 -9.999990 0.000000 1.000000 0.000000 -1.000000 0.000000 0.000000 0.000000 0.000000 1.000000 43093.dat
1 0 -136.200000 -54.000140 -329.999900 1.000000 0.000000 0.000000 0.000000 -1.000000 0.000000 0.000000 0.000000 -1.000000 32526.dat
1 0 -136.200000 -54.000140 -30.000010 0.000000 0.000000 1.000000 1.000000 0.000000 0.000000 0.000000 1.000000 0.000000 32184.dat
1 0 -106.240000 -54.002860 -29.999950 0.000000 0.000000 1.000000 0.000000 1.000000 0.000000 -1.000000 0.000000 0.000000 59443.dat
1 0 -126.240000 -54.000000 -29.999950 1.000000 0.000000 0.000000 0.000000 1.000000 0.000000 0.000000 0.000000 1.000000 43093.dat
1 0 -136.200000 -24.000150 9.999969 0.000000 -1.000000 0.000000 1.000000 0.000000 0.000000 0.000000 0.000000 1.000000 2780.dat
1 0 -136.200000 -54.000160 -190.000000 1.000000 0.000000 0.000000 0.000000 1.000000 0.000000 0.000000 0.000000 1.000000 41239.dat
1 0 -62.910000 -54.000700 -29.999930 0.000000 0.000000 1.000000 0.000000 1.000000 0.000000 -1.000000 0.000000 0.000000 56908.dat
1 0 -26.200020 -54.000000 -9.999960 1.000000 0.000000 0.000000 0.000000 1.000000 0.000000 0.000000 0.000000 1.000000 2780.dat
1 0 -36.200020 -54.000000 -29.999960 0.000000 1.000000 0.000000 -1.000000 0.000000 0.000000 0.000000 0.000000 1.000000 32523.dat
1 0 -26.200010 -54.000020 -49.999960 1.000000 0.000000 0.000000 0.000000 1.000000 0.000000 0.000000 0.000000 1.000000 2780.dat
1 0 -36.200000 -54.000160 -170.000000 0.000000 1.000000 0.000000 1.000000 0.000000 0.000000 0.000000 0.000000 -1.000000 32526.dat
1 0 -26.200010 -54.000160 -190.000000 1.000000 0.000000 0.000000 0.000000 1.000000 0.000000 0.000000 0.000000 1.000000 43093.dat
1 0 -26.200010 -54.000140 -170.000000 -1.000000 0.000000 0.000000 0.000000 -1.000000 0.000000 0.000000 0.000000 1.000000 2780.dat
1 0 -26.200010 -54.000180 -210.000000 -1.000000 0.000000 0.000000 0.000000 -1.000000 0.000000 0.000000 0.000000 1.000000 2780.dat
1 72 123.800600 5.999800 -290.002200 1.000009 0.000000 0.000000 0.000000 0.000000 -1.000000 0.000000 1.000009 0.000000 92911.dat
1 71 123.800600 -34.000200 -270.002200 0.000000 0.000000 1.000009 -1.000000 0.000000 0.000000 0.000000 -1.000009 0.000000 32316.dat
0 NOFILE
